<svg xmlns="http://www.w3.org/2000/svg" xmlns:xlink="http://www.w3.org/1999/xlink" viewBox="91.80 171.79 411.30 498.60" width="411.30" height="498.60">
<defs>
<clipPath id="clip_1">
<path transform="matrix(1,0,0,-1,0,841.89)" d="M0 841.89H595.276V0H0Z"/>
</clipPath>
</defs>

<g inkscape:groupmode="layer" inkscape:label="&#x30C7;&#x30B6;&#x30A4;&#x30F3;">
<g clip-path="url(#clip_1)">
<path transform="matrix(1,0,0,-1,199.8121,615.8189)" d="M0 0C.627 .095 .951-.154 .893-.674 .539-3.502-.66-12.803-1.163-15.882-4.217-16.178-7.806-16.552-9.744-16.768-9.829-15.032-9.97-12.684-10.157-10.239-10.424-6.714-10.682-3.608-10.83-1.67-7.93-1.194-2.277-.326 0 0M-33.098-8.742C-34.447-15.623-35.636-18.958-35.826-19.381-36.028-19.812-36.468-20.421-37.067-20.255-37.261-20.208-40.848-18.727-43.83-17.535-42.192-14.541-40.831-11.167-39.798-7.177-38.892-3.661-38.213-.451-37.575 3.203-35.555 3.67-33.242 4.212-32.816 4.304-32.261 4.445-31.557 4.445-31.657 3.326-31.738 2.243-32.143-3.974-33.098-8.742M10.843-2.278C11.811-.064 12.631 1.123 12.605 2.318 12.599 3.868 10.698 4.881 7.761 6.578 6.137 7.492 4.827 8.155 3.47 8.111 2.037 8.047 2.281 7.826-.204 7.018-1.794 6.529-7.458 5.212-12.209 4.349-13.676 5.609-17.91 6.066-19.019 6.106-19.342 6.109-19.693 6.135-20.043 6.094-20.022 6.294-20.043 6.521-20.062 6.745-20.24 8.234-21.754 9.45-24.816 11.468-26.926 12.803-28.041 13.407-29.14 13.407-30.241 13.407-31.05 12.441-32.208 11.528-33.204 11.112-34.697 10.617-36.485 10.11-36.468 10.19-36.468 10.241-36.457 10.309-35.61 15.617-34.821 20.327-34.313 20.979-33.997 21.37-32.667 21.993-32.901 23.553-33.142 25.266-36.169 28.623-40.742 30.388-46.104 32.456-47.326 29.055-47.326 29.055-47.326 29.055-46.162 29.544-45.214 27.865-43.963 24.74-44.941 15.724-46.128 7.811-50.677 6.856-55.087 6.158-57.494 6.06-60.77 5.926-61.534 7.116-61.534 7.116-61.534 7.116-61.612 3.139-60.06 .961-57.556-2.572-52.951-.535-51.637-.154-50.951 .048-49.223 .467-47.227 .925-47.357 .167-47.484-.542-47.596-1.211-48.985-9.335-50.699-17.376-56.888-26.105-59.607-29.934-63.877-35.257-63.877-35.257-63.877-35.257-56.425-32.317-52.86-28.94-49.866-26.105-47.216-23.112-44.99-19.523-44.756-19.781-44.5-20.037-44.25-20.279-43.355-21.12-40.597-24.468-39.73-29.857-39.197-32.974-37.857-33.346-37.067-33.346-36.143-33.346-34.382-33.068-32.704-32.018-27.82-29.008-25.598-22.623-23.855-10.879-22.627-2.63-22.213 1.134-21.815 2.824-21.527 2.181-21.108 1.595-20.763 1.256-20.195 .584-18.851-3.974-17.566-19.455-17.247-23.167-15.789-27.143-13.889-27.096-12.798-27.057-11.25-25.671-10.345-23.293-8.208-23.019-1.336-22.207 2.367-21.754 5.16-21.433 6.072-21.587 6.958-21.715 7.956-21.874 9.085-20.995 8.797-19.491 8.543-18.335 7.794-17.275 6.874-16.492 7.02-15.737 7.208-14.785 7.449-13.529 8.64-8.72 9.57-5.097 10.843-2.278" fill="#c4a050"/>
<path transform="matrix(1,0,0,-1,397.5656,635.6314)" d="M0 0C.564-.968 1.383-1.35 2.111-1.453 3.837-1.726 4.771 .596 4.617 2.834 4.467 5.177 2.97 6.732 .483 7.942-1.352 8.838-4.493 9.186-4.493 9.186-4.493 9.186-3.077 7.129-2.767 6.327-1.859 3.815-1.132 2.027 0 0M49.946-.68C49.946-.68 46.594-.436 45.605-.396 45.58 2.113 45.551 5.486 45.535 8.248L49.946 8.856C50.436 8.88 50.994 8.728 50.994 7.521L51.072 1.951C50.994-.673 50.604-.68 49.946-.68M34.729 21.606 34.306 25.262C37.389 25.747 42.929 26.668 45.49 27.483 46.395 27.703 47.003 28.253 47.028 28.901 47.042 29.659 46.062 30.62 45.519 30.853 44.865 31.15 44.05 31.294 43.127 31.28 42.39 31.28 39.644 31.113 34.954 29.628L33.838 29.262 33.476 32.254 48.083 35.016C48.083 35.016 48.998 35.171 49.197 34.937 49.458 34.617 49.388 33.866 49.388 33.866L48.794 23.95ZM61.203 10.406C61.203 11.644 60.891 12.494 57.754 14.372 55.832 15.574 53.848 16.42 52.124 15.971 51.313 15.753 49.849 14.949 48.791 14.557 48.468 14.451 47.24 14.162 45.708 13.821 45.951 14.332 46.334 15.195 46.466 15.988 46.656 17.077 45.847 18.03 44.484 19.165L48.863 19.778C49.257 17.966 50.07 17.354 51.184 17.577 52.017 17.768 52.896 18.324 53.797 19.192 55.396 20.68 55.427 24.201 57.07 30.049 57.754 32.356 58.313 34.052 58.885 35.016 59.445 35.977 59.445 37.318 58.45 38.043 57.35 38.847 53.118 40.682 51.925 40.752 50.823 40.792 49.388 40.184 48.034 39.664 46.806 39.171 44.805 38.739 40.463 37.911 41.803 39.549 44.484 42.689 45.951 43.557 46.878 44.106 47.617 44.52 48.034 45.691 48.493 46.991 47.502 49.964 41.915 51.859 38.131 53.141 36.199 51.105 36.199 51.105 36.199 51.105 38.322 51.352 38.131 48.436 37.926 45.136 36.221 42.237 32.791 36.567L32.185 36.464C29.086 37.389 25.262 37.021 25.031 36.43 24.54 35.228 26.066 34.66 26.434 33.296 26.998 31.236 28.773 20.553 28.989 19.257 29.4 16.645 30.954 15.238 31.784 15.314 32.955 15.429 33.911 16.848 34.35 17.738L36.941 18.103C37.176 17.059 37.531 15.101 37.767 12.178V12.125C37.56 12.081 37.444 12.051 37.444 12.051 37.444 12.051 32.88 11.301 30.882 11.217 28.831 11.684 27.128 12.125 26.403 12.125 24.664 12.081 24.319 11.257 24.319 10.583 24.319 10.006 24.966 8.984 25.291 8.166 25.694 7.158 25.958 5.241 25.958 3.133 25.958 1.648 25.776 .236 25.522-.564 24.949-2.123 24.635-3.167 24.635-4.233 24.635-5.176 24.936-6.145 25.623-7.421 26.822-9.631 28.139-10.762 29.436-10.725 30.359-10.716 32.056-10.058 33.023-5.974 33.28-4.978 33.412-1.969 33.412 3.208V6.513C34.767 6.768 36.176 6.992 37.56 7.153L37.827 7.184 37.873 2.941C37.873-.586 37.926-12.397 38.501-16.186 39.47-21.397 40.255-22.439 41.224-22.439 42.162-22.439 43.003-21.477 44.172-16.686 44.964-13.155 45.605-6.744 45.605-2.224V-1.88C46.087-2.206 47.083-2.898 48.103-3.777 49.542-5.014 50.419-7.331 50.899-8.485 51.612-10.159 52.705-10.475 53.489-10.475 54.51-10.458 55.695-9.833 57.031-8.626 59.236-6.568 60.007-3.015 60.007 .503 60.007 3.344 59.921 5.992 59.921 5.992 59.921 7.432 61.203 9.6 61.203 10.406M14.552 .468C14.552 .468 17.416 2.569 19.35 4.4 21.282 6.19 22.016 7.18 22.57 7.922 23.154 8.631 23.498 9.296 23.438 9.811 23.348 10.534 22.438 11.182 20.918 11.618 19.045 12.186 17.758 12.274 17.358 12.252 16.96 12.252 16.579 11.894 16.766 11.345 16.949 10.774 17.156 10.303 17.156 10.303 17.156 10.303 17.072 9.259 16.323 6.12 15.649 3.402 14.552 .468 14.552 .468M14.298 13.738C16.116 14.295 18.278 14.958 20.39 15.807 22.05 16.495 22.984 17.508 22.984 18.562 22.984 19.151 22.689 19.941 21.295 20.408 20.39 20.712 19.628 20.896 18.72 20.896 17.638 20.896 16.49 20.579 14.77 19.971 14.874 20.575 15.072 21.266 15.349 21.606 15.629 21.885 15.786 22.247 15.786 22.659 15.786 23.589 14.596 23.992 14.596 23.992 15.561 24.23 18.86 25.147 18.86 25.147 21.134 25.778 22.293 26.688 22.293 27.855 22.293 28.373 22.007 29.157 20.688 29.883 19.795 30.36 19.031 30.566 18.104 30.566 16.795 30.566 15.349 30.049 13.292 29.113 10.706 27.844 8.833 27.399 5.671 26.403 5.555 26.372 5.399 26.333 5.246 26.311 8.098 29.781 11.001 33.866 12.581 36.624 12.581 36.624 12.934 37.269 13.389 38.154 14.125 37.479 15.155 36.567 15.881 35.964 18.072 34.173 20.689 32.746 21.489 32.661 23.019 32.474 23.947 33.469 23.397 36.162 22.848 38.77 19.588 40.792 15.591 42.224 15.859 42.699 16.058 43.057 16.127 43.191 16.49 43.784 18.076 44.709 17.383 46.253 16.195 48.914 13.642 50.881 9.657 51.991 7.384 52.644 6.129 50.683 6.129 50.683 6.129 50.683 7.503 50.947 7.855 49.361 8.198 47.885 6.612 43.228 4.219 37.876 1.156 31.074-5.939 20.477-9.885 15.716-12.564 12.473-14.476 11.142-14.476 11.142-14.476 11.142-10.863 12.372-8.534 13.753-5.718 15.398-1.82 18.751 1.106 21.654 1.503 21.606 1.881 21.597 2.142 21.606 4.582 21.768 6.833 22.818 6.833 22.818 6.833 22.818 6.987 21.172 7.032 20.255 7.076 19.35 6.987 17.315 6.987 17.315 5.212 16.716 3.499 16.312 1.802 15.949-.243 15.502-1.493 15.151-1.493 14.239-1.493 13.676-.999 13.196 1.506 12.306 2.142 12.081 3.053 11.975 4.339 11.975 5.1 11.975 5.998 12.041 6.921 12.138 6.873 11.05 6.56-3.055 6.56-3.055 6.56-3.055-2.3-5.508-4.451-5.68-7.476-5.844-8.831-5.227-8.831-5.227-8.831-6.07-7.133-8.851-3.614-11.414-1.507-12.976-.225-13.763 .982-13.763 1.868-13.763 2.608-13.349 3.481-12.727 5.975-10.886 17.358-5.458 18.887-4.503 21.427-2.969 23.606 .476 23.606 1.314L13.679-1.285C13.679-1.285 14.275 13.072 14.298 13.738" fill="#c4a050"/>
<path transform="matrix(1,0,0,-1,333.9706,647.82546)" d="M0 0C-2.52 3.209-2.626 6.514-2.996 13.28L-5.965 4.287C-5.965 4.287-9.839 5.318-16.59 10.1-17.77 10.951-19.278 12.194-20.865 13.915-20.331 14.574-19.812 15.234-19.151 15.984-18.43 16.791-16.281 19.988-15.556 20.715-15.556 20.715-12.988 21.925-13.507 24.024-13.942 25.843-17.618 28.033-20.115 28.963-22.13 29.711-24.482 29.253-24.482 29.253-24.482 29.253-22.83 27.623-22.966 25.223-23.035 23.98-24.106 22.041-25.526 20.094-26.326 21.404-27.098 22.83-27.817 24.429-29.063 27.192-30.029 29.584-30.746 31.568-25.739 32.513-21.75 33.262-21.442 33.288-16.75 33.628-14.037 32.94-13.561 34.355-12.864 36.501-18.123 41.385-22.109 39.645-23.279 39.122-27.557 38.141-32.456 37.086-32.654 37.859-32.74 38.28-32.74 38.28-32.74 38.28-32.388 41.228-34.089 42.623-36.399 44.492-39.657 44.428-42.111 44.42-42.261 44.42-42.379 44.405-42.516 44.405-42.366 45.545-42.323 46.794-42.403 47.891-38.969 49.334-35.544 52.101-35.544 52.101-35.544 52.101-38.915 52.535-43.107 52.385-43.638 55.491-44.279 59.628-44.206 60.165-44.05 61.031-43.977 61.767-44.144 62.315-44.753 64.502-48.476 65.221-52.027 64.269-55.57 63.325-56.469 60.855-56.469 60.855-56.469 60.855-55.672 61.859-54.272 60.551-52.728 59.105-51.517 55.457-50.093 51.912-50.093 51.912-50.074 51.865-50.039 51.788-54.613 51.276-59.486 50.607-60.923 50.607-66.084 50.607-66.545 53.096-66.545 53.096-66.545 53.096-68.77 49.14-67.02 45.249-64.962 40.67-63.712 43.399-61.399 44.082-58.925 44.803-52.433 45.801-47.82 46.589-46.896 44.655-44.843 41.179-43.768 41.334-42.996 40.17-42.146 38.659-41.439 36.821-41.32 36.452-41.133 35.939-40.904 35.333-44.128 34.694-46.979 34.139-48.697 33.822-48.81 34.02-48.945 34.185-49.107 34.324-50.346 35.403-52.358 36.196-54.768 36.718-55.971 36.985-58.266 37.264-58.745 36.659-59.24 36.042-58.013 34.531-57.746 33.791-56.837 31.185-56.372 27.253-57.447 19.314-58.099 14.536-59.209 8.864-61.736 4.401-64.214 .029-71.183-4.12-71.183-4.12-71.183-4.12-64.416-3.177-61.218-1.956-55.014 .403-50.396 5.499-48.402 16.961-47.459 22.402-47.459 28.42-47.459 28.42-45.094 28.887-42.009 29.456-38.842 30.048-37.857 27.681-36.73 25.05-35.544 22.671-34.139 19.837-32.456 17.028-30.724 14.405-33.756 11.608-36.763 8.605-41.891 5.588-45.795 3.28-49.27 1.308-49.27 1.308-49.27 1.308-44.693 1.405-41.085 2.192-37.514 2.95-29.989 5.815-26.434 8.582-25.096 6.894-23.784 5.463-22.614 4.337-18.268 .127-11.613-4.365-6.934-6.427-2.52-8.344 0-7.357 .916-5.567 1.451-4.555 1.877-2.388 0 0M-9.08 43.188C-11.26 44.281-14.276 44.766-14.276 44.766-14.276 44.766-11.411 36.452-10.289 34.645-9.182 32.83-7.045 32.306-5.379 33.09-3.697 33.87-3.229 35.44-3.638 37.439-4.252 40.496-6.384 41.84-9.08 43.188M-27.795 54.343-34.914 52.396C-34.914 52.396-33.212 50.51-29.699 50.277-29.438 50.27-29.125 50.265-28.782 50.237-29.595 47.026-30.355 44.136-30.355 44.136-30.355 44.136-27.314 44.655-25.857 45.913-24.91 46.754-23.678 48.651-22.671 50.404-18.072 50.625-13.014 50.968-12.071 51.003-10.719 51.041-7.228 50.55-5.996 50.374-4.943 50.237-3.956 51.468-4.221 52.946-4.806 56.283-8.672 60.035-11.38 59.676-12.89 59.497-12.714 58.327-14.66 57.928L-19.844 56.515C-19.151 58.046-18.293 59.573-17.559 60.035-16.675 60.565-16.08 60.649-15.829 61.586-15.433 63.075-16.613 65.621-21.35 67.428-26.064 69.214-28.707 66.554-28.707 66.554-28.707 66.554-27.749 66.591-27.086 65.826-26.465 65.102-26.724 61.273-26.946 58.474-27.006 57.872-27.337 56.268-27.795 54.343" fill="#c4a050"/>
<path transform="matrix(1,0,0,-1,445.9666,380.11494)" d="M0 0C-1.243 .312-2.6 .077-2.6 .077-2.6 .077-1.124-1.359 .423-3.247 1.834-4.969 4.014-3.754 3.298-2.222 2.718-.983 1.616-.404 0 0" fill="#c4a050"/>
<path transform="matrix(1,0,0,-1,451.3546,406.17283)" d="M0 0C-.557 0-1.326 .257-2.27 .767-4.196 1.883-5.607 3.682-7.147 6.424-8.433 4.88-9.568 4.137-10.891 3.408-11.577 3.031-13.186 2.484-13.186 2.484-13.186 2.484-12.151 3.673-11.432 4.563-10.176 6.125-8.993 7.977-8.2 9.232-8.2 9.232-10.472 15.126-11.159 17.481-11.884 17.309-12.543 17.041-12.974 16.911-12.974 13.272-13.076 9.841-13.076 9.841L-9.568 11.113C-9.568 11.113-10.027 10.551-10.918 9.46-13.358 6.478-13.78 5.223-14.212 4.283-14.726 3.083-15.114 2.526-15.539 2.526-15.97 2.526-16.439 3.083-17.124 4.111-17.726 4.967-18.023 5.481-18.023 5.908-18.023 6.297-17.767 6.594-17.295 6.936-16.309 7.706-16.096 9.165-15.927 12.415V13.227C-15.927 14.898-16.096 16.824-16.396 17.512-16.654 18.107-16.825 18.539-16.825 18.878-16.825 19.179-16.654 19.35-16.309 19.35-15.838 19.35-15.027 19.094-13.74 18.494-13.058 18.58-11.745 19.049-11.745 19.049-11.745 19.049-14.9 28.077-15.199 28.721-15.675 29.738-16.276 29.639-16.276 29.639-16.276 29.639-15.335 30.746-12.578 30.059-10.625 29.57-9.881 29.102-9.845 28.25-9.833 27.99-9.906 27.734-9.979 27.431-10.13 26.953-10.149 26.439-10.123 25.836-10.065 24.551-8.84 20.24-8.84 20.24-8.84 20.24-7.921 20.505-6.922 20.868-6.615 20.981-6.128 21.299-5.633 21.531-4.988 21.832-3.588 21.286-3.155 20.935-2.622 20.506-2.756 20.01-3.386 19.58-3.997 19.159-5.342 19.092-6.128 18.851-7.306 18.49-8.391 18.196-8.391 18.196-7.835 15.923-6.72 12.373-6.72 12.373-6.092 13.779-5.763 14.763-5.533 16.299-5.443 16.902-5.904 17.153-5.904 17.153-5.904 17.153-4.873 17.528-3.586 16.967-2.133 16.336-1.522 15.493-1.6 15.116-1.717 14.518-1.951 14.466-2.294 14.123-2.936 13.609-3.127 13.227-3.554 12.201-4.025 11.133-4.622 10.063-5.22 9.076-4.577 7.921-3.896 7.023-3.169 6.206-2.566 5.526-2.183 5.223-1.882 5.223-1.497 5.223-1.081 6.047-.561 7.076-.105 7.976 .423 9.327 .423 9.327 .423 9.327 .049 6.673 .049 5.858 .049 4.83 .685 2.357 .9 1.883 1.073 1.541 1.115 1.242 1.115 .986 1.115 .384 .728 0 0 0M2.1-2.869C-2.91-4.924-5.437-5.822-7.363-5.822-8.989-5.822-10.188-5.18-12.157-4.07-17.124-1.155-18.149-.516-23.503 2.611-24.487 3.171-25.726 3.941-28.296 5.651-30.439 2.27-32.28 .384-35.146-.941-36.176-1.412-37.354-1.876-37.354-1.876-37.354-1.876-35.309 .305-34.401 1.406-33.511 2.483-32.034 5.323-31.167 7.452-30.651 8.719-30.245 10.185-30.245 10.824-30.245 11.457-30.523 11.595-30.533 11.622-30.533 11.622-30.085 11.794-29.619 11.716-29.056 11.622-28.435 11.366-27.325 10.686-26.08 9.873-25.683 9.034-25.904 8.62-26.152 8.154-26.385 8.202-26.625 8.048-26.781 7.951-26.927 7.791-27.098 7.578-26.201 7.15-25.514 6.764-24.959 6.424-24.959 11.514-25.088 12.543-25.343 13.66-27.912 12.93-30.749 12.114-31.308 11.857-32.249 11.344-33.087 11.081-33.885 11.014-34.445 10.967-34.964 10.873-35.993 11.857-37.033 12.849-37.399 14.247-37.399 14.247-37.399 14.247-36.516 14.111-35.447 14.102-34.212 14.09-31.822 14.294-30.137 14.729-28.891 15.05-25.215 16.096-25.215 16.096V18.921C-25.215 18.921-26.005 18.714-26.997 18.548-28.009 18.379-29.15 18.185-30.043 18.606-31.011 19.063-31.212 20.754-31.212 20.754-31.212 20.754-30.785 20.538-29.717 20.621-28.728 20.706-26.456 21.235-25.215 21.706-25.258 26.372-25.499 27.774-26.057 28.918-26.406 29.63-26.888 29.701-26.888 29.701-26.888 29.701-25.772 30.575-23.234 29.95-21.252 29.464-20.635 28.47-20.635 27.743-20.635 27.441-20.763 27.099-20.934 26.8-21.361 25.944-21.578 24.66-21.663 23.247-20.889 23.547-20.339 23.675-19.78 23.675-19.395 23.675-19.05 23.634-18.665 23.503-17.637 23.247-17.124 22.82-17.124 22.389-17.124 21.921-17.68 21.408-18.752 20.937-19.908 20.464-20.934 20.079-21.832 19.778L-21.961 17.041C-19.82 17.681-19.069 17.903-18.511 17.903-18.257 17.903-17.897 17.854-17.726 17.768-16.912 17.34-16.522 16.911-16.522 16.568-16.522 16.182-16.953 15.884-17.68 15.712-18.965 15.414-20.551 15.026-22.22 14.556-21.193 14.084-20.889 13.743-20.889 13.397-20.889 13.187-21.019 12.93-21.193 12.63-21.361 12.331-21.448 12.032-21.532 11.644-21.532 11.514-21.578 11.387-21.578 11.215-20.505 11.644-19.82 11.815-19.221 11.815-18.794 11.815-18.452 11.73-18.023 11.6-17.254 11.344-16.87 11.046-16.87 10.66-16.87 10.359-17.208 10.022-17.809 9.717-18.922 9.206-19.652 8.949-20.551 8.949-20.889 8.949-21.235 8.949-21.663 9.034V8.99L-21.832 4.797C-13.397 .986-8.948-.172 1.626-1.116 3.599-1.284 5.252-1.407 5.252-1.407 5.252-1.407 3.728-2.185 2.1-2.869" fill="#c4a050"/>
<path transform="matrix(1,0,0,-1,426.9511,488.8034)" d="M0 0C.643 .773 1.887 2.307 2.443 2.695 2.998 3.169 3.378 3.339 3.344 3.934 3.301 4.6 1.716 5.727 .065 6.346-1.283 6.853-2.221 6.287-2.221 6.287-2.221 6.287-1.739 6.318-1.761 5.366-1.801 3.569-3.856-.599-7.836-4.236-8.78-5.09-9.921-6.075-9.921-6.075-9.921-6.075-8.067-5.546-6.698-4.945-4.255-3.874-1.67-2.098 0 0" fill="#c4a050"/>
<path transform="matrix(1,0,0,-1,429.0941,496.3934)" d="M0 0C.77 .471 1.242 .858 1.242 1.286 1.242 1.757 .32 3.318-1.614 4.335-3.069 5.098-3.907 4.588-3.907 4.588-3.907 4.588-3.491 4.467-3.542 3.658-3.596 2.853-4.364 .986-5.266-.64-7.494-4.538-8.378-6.34-12.485-10.146-13.516-11.132-15.026-12.457-15.026-12.457-15.026-12.457-12.789-11.762-11.631-11.289-9.321-10.135-7.962-9.163-5.825-7.063-5.866-9.674-6.165-13.313-6.68-14.729-7.152-16.093-7.322-17.079-7.322-17.852-7.322-18.447-7.234-18.962-7.02-19.479-6.339-21.145-5.523-21.922-4.797-21.922-4.154-21.922-3.555-21.319-3.169-20.204-2.784-19.051-2.569-17.38-2.569-14.938V-13.659C-2.569-12.884-2.481-8.901-2.439-7.917-2.439-5.48-2.481-4.412-2.954-3.598-1.029-1.111-.427-.255 0 0" fill="#c4a050"/>
<path transform="matrix(1,0,0,-1,440.2221,508.27433)" d="M0 0C-1.025 .727-2.094 1.543-3.297 2.482-2.909 2.907-2.522 3.378-2.094 3.935-1.622 3.762-1.197 3.679-.726 3.679-.47 3.679-.171 3.721 .091 3.762 .644 3.848 1.116 3.978 1.628 3.978 1.798 3.978 1.928 3.935 2.101 3.935 1.628 2.736 .901 1.153 0 0M13.7-7.24C9.134-5.777 6.596-4.496 3.171-2.185 4.283-.985 5.097 .47 5.912 2.052 6.294 2.736 6.677 3.036 6.983 3.209 7.579 3.679 7.964 3.978 7.964 4.321 7.964 4.747 7.326 5.263 5.866 6.421 4.97 7.189 4.413 7.531 3.941 7.531 3.513 7.531 3.086 7.276 2.485 6.806 1.628 6.12 .859 5.774-.767 5.604-.253 6.162 .257 6.717 .686 7.104 1.033 7.443 1.288 7.701 1.288 7.919 1.288 8.215 .945 8.516 .132 8.901 1.379 9.212 4.171 9.887 6.049 10.359 6.277 9.967 6.503 9.557 6.72 9.126 8.171 6.249 11.039 8.117 10.646 10.453 10.356 12.188 8.421 13.35 6.728 13.849 5.008 14.355 3.126 14.419 3.126 14.419 3.126 14.419 3.918 13.566 4.892 12.169 1.977 11.537-2.319 10.727-4.749 10.315 2.999 15.285 6.542 17.276 7.696 17.707 8.553 18.004 9.337 18.37 9.424 18.793 9.565 19.53 8.677 20.892 7.228 22.201 5.989 23.32 4.987 23.174 4.987 23.174 4.987 23.174 5.301 22.891 5.087 22.038 4.789 20.881 3.298 19.564 .514 17.206-1.708 17.206-2.824 17.164-4.108 17.164 .257 20.848 1.565 21.854 2.461 22.239 3.321 22.581 4.251 22.661 4.197 23.461 4.145 24.295 2.495 25.646 .953 26.487-.424 27.239-1.343 26.716-1.343 26.716-1.343 26.716-.804 26.342-.895 25.823-1.134 24.473-2.146 22.59-3.08 21.487-6.043 17.987-6.718 17.464-7.963 17.379-9.206 17.293-9.672 17.206-9.672 16.65-9.672 16.308-9.544 15.879-9.29 15.194-8.775 13.869-8.561 13.356-8.003 13.356-7.619 13.356-7.103 13.569-6.333 13.908-5.389 14.302-4.021 14.851-1.667 15.409-7.662 10.315-8.345 10.144-9.631 10.014-10.958 9.888-11.384 9.76-11.384 9.117-11.384 8.731-11.254 8.131-11.003 7.23-10.572 5.862-10.399 5.263-9.802 5.263-9.418 5.263-8.859 5.52-7.963 6.034-6.976 6.676-6.205 7.017-4.492 7.575-4.581 6.847-5.075 5.443-5.846 4.2-7.516 1.633-8.859 .089-11.416-2.388-12.315-3.258-13.439-4.068-13.439-4.068-13.439-4.068-11.973-3.753-11.118-3.415-8.635-2.511-7.187-1.758-4.581 1.024-3.508-.173-2.693-1.154-1.842-2.013-3.938-3.978-6.385-5.682-8.47-6.698-10.321-7.601-12.071-8.265-12.071-8.265-12.071-8.265-9.368-8.139-8.34-8.013-4.789-7.498-2.647-6.85 .43-4.628 1.116-5.439 1.887-6.255 2.742-7.153 4.454-8.991 5.097-9.766 7.237-9.766 8.609-9.766 10.687-9.595 14-8.907 14.938-8.71 16.597-8.229 16.597-8.229 16.597-8.229 14.538-7.507 13.7-7.24" fill="#c4a050"/>
<path transform="matrix(1,0,0,-1,180.5726,516.34146)" d="M0 0C-2.088-.74-4.503-1.096-7.5-1.096-7.93-1.096-8.356-1.055-8.741-1.055-16.961-.712-18.416 1.348-18.416 9.347-18.416 10.119-18.162 13.416-17.944 16.496-17.902 16.968-17.902 17.351-17.902 17.657-17.902 18.211-17.944 18.599-18.205 19.024-19.104 18.939-20.003 18.811-20.901 18.724-19.531 17.74-18.932 17.226-18.932 16.714-18.932 16.283-19.359 15.857-20.088 15.214-20.686 14.7-21.329 13.416-21.799 12.431-24.497 6.696-28.605 3.229-34.385 1.301-35.972 .79-37.853 .435-37.853 .435-37.853 .435-36.029 1.655-34.19 3.158-30.72 5.94-29.206 7.81-26.809 11.874-25.356 14.402-24.456 16.496-24.456 18.168-26.809 17.74-28.094 17.482-28.949 17.482-29.849 17.482-30.591 17.535-31.277 18.049-32.518 18.908-32.941 19.69-32.941 19.99-32.941 20.334-31.989 20.352-30.276 20.352-27.666 20.352-18.716 21.385-12.639 22.875-10.624 23.352-9.427 23.605-8.528 23.605-7.542 23.605-6.9 23.305-6.002 22.62-5.103 21.895-4.59 21.296-4.59 20.825-4.59 20.05-5.916 19.623-9.044 19.623-10.453 19.623-12.422 19.54-14.565 19.365-13.107 18.552-12.554 18.126-12.554 17.698-12.554 17.268-13.066 16.798-13.71 15.943-14.22 15.297-14.565 12.688-14.565 9.947-14.565 8.88-14.523 7.81-14.394 6.827-14.051 4.3-13.625 3.572-10.028 3.572-9.512 3.572-6.996 3.662-6.308 3.7-2.957 3.871-.886 3.741 .118 9.53 .489 11.685 .833 13.709 .833 13.709 .833 13.709 .951 11.228 1.225 8.833 1.492 6.493 2.136 5.356 2.528 4.7 2.921 4.044 2.962 3.261 2.874 2.479 2.775 1.587 1.9 .671 0 0" fill="#c4a050"/>
<path transform="matrix(1,0,0,-1,166.2176,484.5289)" d="M0 0C.357 0 .947-.148 1.776-.445 2.781-1.064 3.286-1.613 3.286-2.084 3.286-2.501 3.212-2.87 3.064-3.195 2.855-3.611 2.59-3.878 2.264-3.993 .251-4.677-1.835-5.238-3.993-5.682-5.475-6.034-6.57-6.213-7.281-6.213-9.471-6.213-10.907-5.667-11.585-4.571-12.089-3.892-12.341-3.402-12.341-3.107-12.341-2.99-12.222-2.928-11.987-2.928-8.849-2.693-6.348-2.308-4.482-1.774-3.091-1.331-1.848-.828-.755-.267-.546-.089-.295 0 0 0" fill="#c4a050"/>
<path transform="matrix(1,0,0,-1,174.1526,383.58134)" d="M0 0C-1.176 .284-2.687 .184-2.687 .184-2.687 .184-.378-3.515 .366-4.264 1.104-5.018 2.194-5.031 2.912-4.47 3.639-3.905 3.69-3.094 3.272-2.173 2.634-.763 1.454-.351 0 0" fill="#c4a050"/>
<path transform="matrix(1,0,0,-1,149.1141,384.76243)" d="M0 0C1.213 .353 4.393 .842 6.657 1.229 7.113 .281 8.121-1.38 8.647-1.348 9.087-1.323 9.302-.572 9.354 .073 9.409 .715 9.354 1.329 9.315 1.866 11.001 2.572 12.68 3.931 12.68 3.931 12.68 3.931 11.027 4.146 8.969 4.071 8.712 5.595 8.396 7.624 8.432 7.888 8.507 8.311 8.545 8.672 8.462 8.941 8.166 10.015 6.339 10.368 4.596 9.899 2.857 9.439 2.418 8.226 2.418 8.226 2.418 8.226 2.807 8.719 3.493 8.076 4.25 7.368 4.846 5.58 5.543 3.839 5.543 3.839 5.552 3.817 5.572 3.779 3.327 3.529 .935 3.199 .232 3.199-2.3 3.199-2.527 4.421-2.527 4.421-2.527 4.421-3.617 2.481-2.759 .572-1.751-1.674-1.137-.339 0 0" fill="#c4a050"/>
<path transform="matrix(1,0,0,-1,158.9881,404.8033)" d="M0 0C-.941-.254-1.457-.384-2.354-.555-2.271 .388-2.185 1.328-2.141 2.23-1.372 2.313-.6 2.443 .127 2.527 .172 2.313 .172 2.055 .172 1.755 .172 1.286 .127 .728 0 0M-1.97 6.25C-1.073 6.294 .127 6.465 2.181 6.896 2.608 6.977 2.869 7.023 3.081 7.023 3.337 7.023 3.423 6.939 3.423 6.636 3.423 6.509 3.423 6.336 3.38 6.123 3.296 5.567 3.253 5.182 3.081 4.797 2.269 4.583 .085 4.281-2.015 3.939-1.97 4.666-1.97 5.481-1.97 6.25M-1.799 10.663C-1.328 10.663-.727 10.748-.087 10.748 .044 10.405 .085 10.103 .085 9.763 .085 9.332 0 8.822-.087 8.221-.685 8.137-1.285 8.05-1.93 8.009-1.97 8.865-1.97 9.719-2.015 10.663ZM22.944-5.181C22.518-3.937 22.011-2.498 21.921-.874 21.805 1.197 21.805 4.581 21.805 4.581 21.805 4.581 21.576 3.853 20.806 1.672 20.462 .685 20.164 .129 19.479-1.586 19.351-1.842 19.266-2.013 19.05-2.013 18.834-2.013 18.453-1.797 17.849-1.285 16.268-.043 15.367 .901 13.7 3.554 14.47 4.88 15.11 6.422 15.754 8.137 16.249 9.328 17.072 11.603 17.341 11.943 17.697 12.133 17.87 12.359 17.809 12.852 17.718 13.584 16.506 14.428 15.058 14.978 13.765 15.473 13.023 14.908 13.023 14.908 13.023 14.908 13.492 14.835 13.515 14.287 13.51 14.087 13.492 13.862 13.434 13.602 12.857 11.053 11.515 7.406 11.515 7.406 11.515 7.406 9.163 13.36 8.519 16.354 9.204 16.44 9.932 16.568 10.659 16.653 12.628 16.911 13.527 17.383 13.527 17.939 13.527 18.365 12.972 18.88 12.029 19.436 11.557 19.694 11.166 19.912 10.617 19.824 10.037 19.732 8.039 19.153 8.039 19.153 8.039 19.153 7.986 19.445 8.009 20.075 8.016 20.314 7.923 20.749 7.575 20.954 8.035 21.375 8.631 22.291 9.121 23.142 11.378 23.249 13.858 23.418 14.321 23.434 14.986 23.453 16.696 23.212 17.303 23.127 17.817 23.058 18.302 23.662 18.173 24.388 17.885 26.026 15.988 27.865 14.662 27.688 13.92 27.6 14.006 27.026 13.052 26.831L10.51 26.135C10.849 26.892 11.269 27.639 11.629 27.865 12.064 28.124 12.354 28.167 12.48 28.626 12.673 29.356 12.094 30.603 9.772 31.491 7.458 32.369 6.16 31.063 6.16 31.063 6.16 31.063 6.631 31.081 6.955 30.704 7.262 30.349 7.133 28.471 7.024 27.099 6.996 26.804 6.833 26.016 6.61 25.074L3.117 24.119C3.117 24.119 3.95 23.193 5.673 23.079 5.802 23.075 5.954 23.073 6.123 23.058 5.99 22.531 5.86 22.027 5.746 21.581 5.283 21.682 4.799 21.751 4.338 21.755 2.742 21.773 2.109 21.273 2.109 21.273 2.109 21.273 3.024 21.004 3.399 20.241 3.751 19.529 4.023 18.88 4.323 18.111 1.412 17.338-2.653 16.738-5.909 16.738H-6.509C-8.264 17.169-9.42 17.383-10.104 17.383-10.617 17.383-10.875 17.253-10.875 16.954-10.875 16.609-10.532 16.055-9.975 15.242-9.465 14.514-9.247 12.756-9.337 10.314-9.632 2.572-11.659-1.56-13.412-3.866-14.547-5.358-15.713-6.849-15.713-6.849-15.713-6.849-13.739-6.029-12.472-5.106-8.839-2.456-6.553 1.241-5.823 7.193-5.479 9.763-5.308 12.331-5.308 14.685-4.838 14.64-4.408 14.64-3.94 14.64-1.93 14.64 .172 14.942 2.653 15.414 3.253 15.542 4.023 15.672 5.051 15.796 5.307 14.942 5.52 14.214 5.693 13.7 7.104 9.161 8.347 5.995 9.714 3.469 8.862 1.969 7.96 .643 6.932-.555 6.719 .513 6.164 1.115 5.008 1.115 4.452 1.115 3.723 .944 2.827 .643 3.081 1.286 3.21 1.713 3.21 2.013 3.21 2.443 2.954 2.656 2.353 2.825 3.466 3.038 4.364 3.17 4.836 3.255 6.207 3.469 6.848 3.853 6.848 4.281 6.848 4.623 6.549 4.968 5.992 5.309 6.078 6.083 6.121 6.465 6.68 6.896 7.062 7.193 7.278 7.45 7.278 7.707 7.278 8.009 6.979 8.348 6.207 8.946 5.307 9.719 4.88 9.846 3.852 9.332 3.466 9.161 3.081 9.035 2.653 8.903 2.954 9.549 3.081 9.974 3.081 10.275 3.081 10.748 2.695 10.919 1.884 11.216 2.782 11.475 3.768 11.818 4.54 12.074 5.221 12.29 5.52 12.545 5.52 12.842 5.52 13.144 5.263 13.445 4.751 13.786 4.452 13.997 4.152 14.127 3.852 14.127 3.466 14.127 3.037 13.911 2.481 13.657 .341 12.632-.685 12.29-2.955 12.158-3.512 12.29-3.94 12.374-4.283 12.374-5.053 12.374-5.308 12.028-5.308 11.601-5.308 11.346-5.225 11.045-5.098 10.789-4.797 10.23-4.669 9.291-4.669 7.58-4.669 6.465-4.755 5.012-4.838 3.085-4.923 1.241-5.098 .129-5.738-.942-5.997-1.285-6.124-1.496-6.124-1.757-6.124-2.054-5.867-2.354-5.308-3.038-4.494-4.022-4.367-4.067-2.955-3.169-1.585-2.31 2.525-1.325 5.307-1.325 5.778-1.325 6.164-1.285 6.422-1.155 5.609-2.098 5.084-2.611 4.109-3.524 3.041-4.52 1.07-6.336 1.07-6.336 1.07-6.336 4.023-5.333 5.348-4.637 8.06-3.209 9.761-1.968 11.515 .256 14.512-4.454 16.78-6.293 19.948-7.664 20.678-7.964 21.318-8.135 21.788-8.135 22.73-8.135 23.203-7.618 23.203-6.637 23.203-6.209 23.118-5.736 22.944-5.181" fill="#c4a050"/>
<path transform="matrix(1,0,0,-1,287.3496,572.3289)" d="M0 0C-5.021 0-11.641 .429-13.742 5.07-15.094 8.05-13.506 10.668-11.348 12.303-8.257 14.632 .902 20.637 9.211 26.115 26.127 37.268 48.054 50.948 55.693 65.415 59.892 73.367 61.177 79.867 56.647 87.067 53.062 92.768 50.864 95.897 50.864 95.897 50.864 95.897 16.407 69.243-2.567 57.123-22.579 44.341-43.246 34.009-57.469 26.643-70.773 19.754-83.181 17.733-86.23 16.877-89.247 16.028-91.596 16.82-92.466 18.895-93.196 20.633-92.583 22.738-90.83 24.524-87.105 28.312-80.458 37.112-68.359 45.868-57.219 53.93-32.528 68.868-16.141 79.285 1.462 90.474 33.059 116.253 33.059 116.253 33.059 116.253 24.703 124.691 20.291 126.477 11.16 130.173 5.203 129.641-3.912 125.091-11.09 121.511-22.366 112.983-25.887 109.507-31.432 104.031-39.359 99.884-46.271 101.702-55.429 104.11-62.023 108.481-68.184 115.842-70.295 118.435-70.164 120.328-69.684 121.463-69.245 122.505-68.152 123.795-65.433 124.038-62.611 124.294-56.816 125.038-49.006 128.172-43.033 130.57-32.785 138.225-23.269 143.666-13.792 149.083-7.671 152.104 3.442 155.499 13.263 158.498 25.703 154.806 33.824 150.789 44.572 145.473 55.323 136.267 55.323 136.267 55.323 136.267 62.467 142.417 64.824 152.001 68.174 165.62 59.64 173.68 50.741 175.775 43.175 177.555 28.603 178.648 13.202 179.94-5.836 181.539-25.522 183.19-37.558 185.97-65.345 192.378-67.505 213.469-67.506 219.781-67.505 233.721-55.985 246.335-38.158 251.912-18.006 258.206 22.546 268.282 32.317 270.474 42.609 272.804 58.317 279.05 63.269 283.059 67.495 286.478 64.329 292.954 64.329 292.954L68.076 292.249C68.656 292.14 82.275 289.388 85.199 272.006 87.041 261.141 81.948 252.074 71.863 249.175 65.939 247.47 54.613 247.991 46.271 246.515 38.38 245.118 17.708 240.922 3.327 237.151-11.055 233.38-30.956 228.087-30.956 220.392-30.956 212.565-14.81 210.883-5.164 209.876-2.322 209.581 41.303 205.096 55.779 203.419 76.129 201.077 92.622 188.695 96.82 172.609 100.167 159.835 100.128 140.602 80.937 121.54 79.227 119.822 77.127 117.853 74.42 115.434 81.902 105.427 87.054 95.415 89.739 85.648 92.672 75.029 91.291 59.102 78.616 46.253 58.693 26.017 35.924 10.063 23.729 4.764 16.923 1.782 8.048 0 0 0" fill="#c4a050"/>
<path transform="matrix(1,0,0,-1,297.4416,217.87744)" d="M0 0C16.273 0 27.577-18.173 35.434-29.969 44.757-43.971 48.805-50.843 59.498-55.719 67.026-59.151 72.408-60.353 78.107-60.28 83.421-60.212 87.875-59.137 87.875-59.137 87.875-59.137 81.444-55.028 78.453-52.348 72.633-47.132 65.4-38.479 61.063-28.989 58.546-23.483 56.287-16.511 56.287-16.511 56.287-16.511 62.264-14.09 72.032-19.934 78.605-23.867 90.717-38.363 100.65-56.07 110.161-73.025 119.345-87.412 128.199-97.528 141.47-112.69 158.425-122.33 176.588-119.468 187.033-117.823 193.634-114.35 193.634-114.35 193.634-114.351 177.469-112.81 164.795-100.296 150.412-86.094 147.766-77.918 140.308-63.681 131.366-46.608 118.191-20.6 107.553-6.542 98.15 5.885 85.608 15.293 66.672 15.732 52.963 16.05 41.687 9.17 41.687 9.17 33.655 20.505 20.825 34.337 0 34.337-20.824 34.337-33.654 20.505-41.687 9.17-41.687 9.17-52.962 16.05-66.671 15.732-85.607 15.293-98.15 5.885-107.553-6.542-118.191-20.6-131.365-46.608-140.307-63.681-147.766-77.918-150.411-86.094-164.794-100.296-177.469-112.81-193.634-114.351-193.634-114.35-193.634-114.35-187.033-117.823-176.587-119.468-158.425-122.33-141.469-112.69-128.199-97.528-119.345-87.412-110.16-73.025-100.649-56.07-90.717-38.363-78.604-23.867-72.032-19.934-62.264-14.09-56.286-16.511-56.286-16.511-56.286-16.511-58.545-23.483-61.063-28.989-65.4-38.479-72.632-47.132-78.453-52.348-81.443-55.028-87.874-59.137-87.874-59.137-87.874-59.137-83.421-60.212-78.106-60.28-72.408-60.353-67.026-59.151-59.498-55.719-48.805-50.843-44.758-43.971-35.434-29.969-27.578-18.173-16.273 0 0 0" fill="#c4a050"/>
</g>
</g>
</svg>
