<svg xmlns="http://www.w3.org/2000/svg" width="841.89" height="595.276" viewBox="0 0 841.89 595.276"><defs><clipPath id="a"><path d="M0 0h841.89v595.276H0Z"/></clipPath></defs><g clip-path="url(#a)"><path fill="#ede8df" fill-rule="evenodd" d="M393.494 320.647a.3.3 0 0 1 0 .172c-.04.026-.06.04-.132.04-.045-.051-.097-.15-.05-.232l.03-.051c.083.007.103.034.152.07m-.162-1.815c.062.185.04.49.01.69-.029.013-.029.019-.06.01-.167-.1-.133-.546-.062-.71l.051-.02zm-44.472-11.066.051.01v.07q-.026.007-.05.01-.007-.003-.01-.01.003-.04.01-.08m46.814-.244.051.02c.03.098.06.266-.03.325-.046.017-.06 0-.092-.02a.4.4 0 0 1 .071-.325m-45.719-1.744.04.01c.033.218-.47 1.016-.588 1.217-.073.125-.075.348-.274.315l-.01-.082.182-.223.071-.334a8 8 0 0 1 .58-.903m.982-2.03h.041l.01.02c-.046.167-.132.295-.172.438l-.05.273q-.148.218-.295.437c-.08.123-.089.277-.203.365-.046-.01-.03 0-.05-.031-.07-.174.101-.272.162-.355.07-.094.055-.22.101-.345.056-.153.211-.23.274-.365l.01-.182c.026-.145.082-.178.172-.254m.234-.497.04.02c.032.16-.095.377-.203.437l-.01-.021c.053-.228.016-.322.173-.436m2.018-.436h.021Zm.294-.811.041.02c.011.189.014.442-.162.416-.113-.294-.003-.264.121-.436m2.354-4.84q.035.012.071.02c.107.266-.106.332-.183.519l-.09.416-.245.466c-.055.092-.27.282-.375.102-.067-.124.033-.378.061-.497.05-.21.145-.48.294-.59l.233-.12c.094-.092.136-.226.234-.315m39.35-.02c.121.03.315.324.293.487q-.06.151-.122.304c-.029.16.115.362 0 .487l-.03.04a.22.22 0 0 1-.152-.04c-.143-.362-.01-.385.05-.67.05-.232-.13-.39-.04-.608m65.676-.396.04.02c.043.175.07.733-.03.883q-.066.051-.132.1c-.075.059-.105.147-.162.225l-.02-.011c-.045-.52.124-.443.233-.781.044-.136.011-.324.071-.436m17.791-.548c.088.046.151.332.051.386-.14.076-.308-.157-.254-.294.025-.056.055-.07.102-.102zm-123.12-.994h.04l.01.02c.044.232-.187.307-.253.467q-.036.138-.07.274c-.065.104-.177.156-.215.294-.073.274-.049.506-.172.71a1 1 0 0 1-.243.284c-.079.057-.217.085-.264.173l-.04.264-.143.415-.03.335a1.6 1.6 0 0 1-.396.528c-.104.08-.235.139-.304.253l-.132.376-.193.213-.07.385-.295.233-.03.274-.233.335c-.056.128-.045.33-.122.456l-.254.173c-.097.137-.082.336-.152.507l-.223.294c-.112.186-.13.44-.375.487l-.03-.03c-.02-.261.152-.258.222-.426l.051-.274.213-.366.081-.385c.087-.21.266-.431.386-.62l.162-.415c.054-.078.176-.095.213-.192l.081-.457.193-.294.091-.416c.046-.067.147-.062.223-.101.114-.058.223-.193.294-.294.122-.171.111-.46.224-.65l.284-.324.121-.254.132-.101.051-.203.284-.477.061-.456.182-.223c.232-.374.3-.52.64-.792m73.793-.476c.346-.004.81-.035 1.106.05.198.058.341.199.558.244l1.065.03c.23.046.331.183.558.223.174.03.394-.036.537.02.34.136.826.695 1.015 1.005l.121.345c.118.19.368.332.457.548.173.42-.127.543-.173.77l-.02.923c-.049.239-.258.32-.304.538l-.02.69c-.043.154-.229.177-.264.335-.039.17.02.36-.03.497-.074.195-.235.323-.285.557l-.02.863c-.026.095-.118.12-.162.192l-.082.376c-.06.162-.219.272-.273.426l-.02.74c-.042.133-.22.154-.264.284v.528l-.274.497-.06.517c-.045.107-.162.15-.194.274l-.04.537-.274.487c-.047.153.015.375-.04.507l-.214.254-.04.396-.274.487-.04.365c-.045.1-.188.13-.234.243-.069.17.027.444-.06.599-.095.165-.463.04-.569.192-.299.427.185.96.071 1.623-.046.266-.223.39-.294.619-.058.186.018.445-.02.659-.029.16-.318.668-.427.75-.28.217-.408-.195-.75-.1-.23.063-.205.403-.578.334-.16-.03-.41-.023-.528-.101l-.335-.386c-.206-.132-.43-.143-.557-.355-.07-.118.022-.381-.06-.497-.122-.17-.376.07-.508.05-.112-.016-.297-.148-.366-.222-.135-.147-.007-.763-.05-1.045l-.04-.385c-.12-.345-.354-.775-.275-1.29l-.01-.303c.033-.17.378-.715.487-.852l.355-.345c.077-.113.027-.273.081-.426l.183-.253.081-.406.243-.386c.07-.145-.02-.37.031-.527.04-.12.195-.137.243-.243.076-.167-.029-.422.02-.61q.149-.267.295-.537l.03-.588c.045-.11.19-.122.223-.243.065-.228-.053-.552.021-.781.06-.188.244-.25.284-.457l-.01-1.035c.037-.147.216-.167.263-.294l.02-.67c.058-.2.25-.287.305-.496l.01-.568c.033-.148.162-.185.203-.304l.05-.467.284-.416.021-.69c.044-.176.188-.268.233-.436.065-.246-.022-.566.02-.842.023-.146.05-.392.01-.548-.127-.506-.83-.52-.568-1.42zm13.268-.274c.601-.008 1.285.572 1.643.852.131.103.176.274.375.314.248.05.218-.243.426-.263.12.085.115.187.193.314.13.209.344.369.477.588.063.105.062.256.132.365.091.144.278.258.385.396.084.109.108.27.193.386.137.185.314.355.436.557l.101.315.183.172.274.376c.053.09.04.21.091.314l.193.203c-.01.183-.12.185-.193.294-.082.124-.059.536-.02.71.034.155.366.55.466.71.102.163.064.327.142.517.04.096.15.133.183.244l.051.365c.06.145.234.217.274.375v.487c.036.137.182.184.233.305l.04.517.224.385c.06.137.064.3.131.447l.122.12.152.427.203.386c.065.157-.024.38.041.558l.213.284.061.345.263.568.031.517.182.183.082.375.263.517.031.365.203.355.06.447.284.598.071.315c.043.103.125.164.153.294l.03.649c.063.21.228.354.304.537l.061.355c.054.132.174.227.213.376l.041.284.162.264c.058.153.04.459.304.395.136-.033.218-.216.294-.314.227-.291.513-.548.66-.923l.061-.325c.062-.164.253-.337.355-.477.096-.131.108-.308.203-.456l.426-.538c.095-.146.055-.381.142-.527.124-.211.35-.354.476-.548.064-.097-.01-.272.051-.365l.183-.173c.06-.096.056-.242.111-.334l.254-.325.03-.274.173-.142c.165-.263.24-.622.355-.933.047-.128.222-.15.263-.274.06-.173.011-.361.082-.507.06-.124.184-.208.223-.355l.02-.304c.033-.09.146-.092.193-.163l.101-.375c.05-.114.192-.172.233-.274.048-.116.005-.253.061-.345l.193-.192.132-.366.193-.243c.034-.108-.017-.272.04-.355.054-.078.182-.077.223-.172l.071-.426.213-.335.112-.365.172-.223.061-.386.233-.294.041-.538q.112-.147.223-.294l.081-.446.193-.386.031-.294c.067-.17.236-.221.294-.426.087-.308.234-.478.314-.75.03-.1-.009-.305.061-.366l.101.67-.03.588c.012.152.133.297.091.457-.04.16-.21.113-.355.172-.102.042-.244.229-.294.325-.076.147.023.338-.01.507-.038.198-.2.277-.254.446l-.03.558-.203.264-.06.527c-.072.235-.2.443-.264.649l-.03.254-.143.304-.05.335c-.085.288-.336.41-.335.79q.015.007.03.01c.022.019.027.019.071.022.21-.106.342-.536.487-.731l.274-.274.091-.273c.064-.102.185-.163.233-.284l.092-.426.203-.295.121-.466.142-.274.041-.244c.05-.123.17-.171.233-.273.145-.233.212-.483.375-.69.071-.09.194-.121.244-.233l.051-.295.192-.365.051-.385c.056-.127.197-.188.243-.335l.061-.487q.164-.243.325-.487c.058-.072.144-.107.183-.203l.06-.344c.052-.15.18-.243.224-.406l.03-.355c.037-.092.157-.127.213-.203.1-.136.171-.34.254-.477l.121-.385.213-.223c.06-.088.042-.214.081-.325l.264-.446h.041c.283.237.188.43.121.78l-.04.386-.233.264c-.038.11.001.239-.05.325-.073.119-.216.165-.255.324l-.02.457-.193.192-.12.254-.204.243c-.083.135-.002.339-.06.497l-.224.203c-.068.11-.008.28-.04.436-.057.27-.383.596-.518.822-.063.105-.003.257-.04.406-.038.148-.205.21-.265.345-.063.145-.009.355-.07.527l-.132.183c-.137.26-.245.518-.416.75-.06.08-.197.125-.234.223v.528c-.035.107-.157.155-.213.243l-.12.416-.143.132-.132.375-.203.264-.04.304q-.09.097-.183.193c-.11.17-.188.373-.284.538l-.152.436c-.044.064-.122.1-.153.182l-.08.274-.224.325-.05.314-.183.183-.08.243-.235.365-.07.345c-.043.112-.178.13-.224.234-.06.136.004.385-.05.517-.17.412-.589.692-.802 1.075-.103.187.028.535-.09.71-.064.092-.173.152-.234.254l-.142.365c-.112.196-.334.125-.223.487l.071.01c.127-.098.138-.276.182-.456.17-.074.345-.153.446-.295l.112-.192c.118-.118.303-.162.406-.295l.213-.375.345-.284.162-.294c.244-.343.503-.727.68-1.136q.065-.209.131-.416l.518-.72.081-.284.162-.173c.078-.133.06-.33.102-.497l.182-.415c.08-.13.27-.154.335-.284.061-.203-.094-.45-.01-.62.05-.102.197-.107.253-.202.041-.082.001-.237.031-.335.04-.128.193-.136.253-.233.113-.182-.12-.34.152-.477.058-.03.107-.05.173-.02.002.134.025.277-.04.385l-.122.163c-.044.166.028.33-.05.446l-.265.193c-.059.077-.023.27-.06.365-.063.155-.253.308-.295.426-.05.14.001.323-.05.446a4 4 0 0 1-.274.568l-.163.193c-.068.12-.065.387-.12.517q-.255.42-.509.842l-.11.426c-.072.178-.203.284-.295.426-.03.048-.059.15-.03.223.014.036.017.043.05.06.145.094.291-.036.365-.11l.284-.376.213-.213.102-.263.192-.244c.054-.125.016-.308.081-.416l.213-.284.082-.436.182-.243.081-.345.173-.213.142-.386.172-.233.061-.406.213-.284c.13-.23.185-.452.304-.69h.051c.09.167.162.54.041.74q-.076.113-.153.224l-.05.467-.234.314-.1.375c-.05.075-.147.11-.184.203-.07.179.054.366.011.558-.04.18-.227.26-.295.426l-.08.284-.183.305-.05.355c-.095.234-.304.489-.437.699l-.142.457-.223.345c-.062.174.038.407-.02.568l-.234.264-.04.324-.224.436c-.053.123-.043.268-.1.406l-.123.112-.243.476-.152.568-.173.152q-.166.234-.335.467c-.159.285-.248.588-.436.842l-.426.467-.04.253-.163.396c-.214.367-.479.684-.71 1.055-.122.196-.478.404-.436.71.064.079.241.055.355.08l.061.102c-.03.272-.287.37-.416.548l-.193.314-.172.163c-.05.09.013.225-.02.324-.047.14-.208.23-.315.315-.084.066-.323.383-.405.365l-.07-.03c-.05-.188.072-.218.151-.325l.132-.264c.103-.137.265-.154.273-.395-.083-.18-.282-.393-.537-.335l-.04.06-.02.335c-.104.257-.594.562-.782.782-.083.097-.148.242-.294.273l-.74-.101c-.125-.071-.192-.191-.356-.233-.158-.041-.694-.038-.8-.102-.312-.186-.402-.481-.579-.801-.14-.255-.394-.46-.548-.72q-.06-.122-.122-.244l-.243-.314c-.037-.103.014-.265-.04-.345l-.143-.112-.1-.314-.265-.335c-.059-.105-.06-.231-.122-.324l-.13-.173q-.032-.147-.062-.294c-.07-.13-.205-.22-.264-.365l-.04-.274-.173-.203-.04-.274-.285-.365-.08-.375c-.05-.112-.154-.203-.193-.335l-.03-.345c-.049-.123-.222-.27-.285-.426l-.05-.406-.163-.192c-.054-.085-.018-.222-.05-.335l-.224-.365-.08-.548c-.049-.121-.18-.164-.234-.274l-.05-.304c-.049-.11-.153-.228-.204-.345l-.132-.7c-.037-.108-.133-.163-.172-.253l-.06-.355c-.064-.143-.19-.266-.244-.426l-.05-.59c-.042-.152-.18-.217-.234-.354l-.03-.375-.244-.446-.08-.416-.174-.152c-.055-.083-.015-.217-.05-.325-.052-.154-.199-.25-.254-.416l-.05-.477c-.049-.12-.189-.142-.244-.253l-.01-.365-.142-.274-.203-.61-.152-.252q-.022-.198-.04-.396l-.437-.588c-.085-.133-.094-.275-.163-.437-.046-.11-.15-.216-.202-.334l-.132-.426-.416-.6-.132-.283-.213-.304-.06-.223-.467-.447c-.172-.22-.337-.511-.558-.68-.26-.197-.587-.025-.944-.101a13 13 0 0 1-.74-.415l-.173-.335-.314-.112-.436-.405c-.183-.23-.313-.514-.487-.751-.083-.113-.46-.484-.355-.67l.365-.385.477-.041.426-.182c.225-.07.88-.094 1.146-.041.208.042.292.213.517.254.18.032.728.029.832-.031l.173-.192zm18.248-.112.06.01c.067.15.056.352.092.538.095.503.257.7.071 1.197-.04.106-.078.224-.193.254-.128-.194-.017-.431-.06-.7-.053-.324-.153-1.022.03-1.3m-103.068-.79c.04.013.021 0 .041.03l.01.072-.09.12-.052.01-.03-.04a.5.5 0 0 1 .121-.192m103.362-.091.061.01c.015.144.013.387-.05.487h-.01l-.062-.02c-.055-.17-.052-.37.061-.477m-104.265-.802c.056 0 .06-.002.081.03.077.186-.152.337-.192.467-.102.329.181.655-.193.812-.06.025-.154.043-.223.01-.025-.655.172-1.01.527-1.32m1.623-1.053c.093.01.151.04.183.11.052.095.016.396-.02.508-.063.19-.247.332-.355.487-.164.234-.206.504-.437.67l-.04-.011c-.054-.308.092-.437.172-.65l.081-.455c.041-.132.138-.208.193-.315.086-.165.058-.257.223-.344m-.882-.528.101.01a.294.294 0 0 1 .163.315c-.032.148-.149.242-.203.365-.089.197-.124.693-.508.568-.41-.134.291-.813.315-.872.064-.158.034-.278.132-.386m104.832-.314c.193 0 .21.098.284.213.055.084.147.162.173.274.086.376-.365.492-.305.862.046.276.295.347.345.618.141.755-.216 1.197-.466 1.573l-.163.304-.182.152c-.085.1-.09.273-.183.365-.349 0-.382-.435-.294-.76.037-.136.141-.22.162-.376.021-.158-.164-.454 0-.568.15-.063.255-.085.315-.233.048-.121.001-.336-.142-.274-.187.083-.113.363-.264.456-.057.06-.35.03-.406-.02-.189-.178.242-.56.274-.65.07-.192-.063-.423 0-.608.04-.113.174-.167.244-.253l.284-.375c.185-.291-.01-.498.324-.7m-13.125-2.506c.268-.004.581-.036.781.05l.253.184.325.142.304.202c.227.077.512-.034.771.01.257.044.368.203.62.254.19.039.355-.058.516 0l.254.193q.228.075.456.152c.206.145.252.407.386.629.066.11.173.218.233.324.055.098.024.26.081.345l.162.183c.145.223.218.459.366.669.051.073.163.097.192.193.066.22-.178.278-.213.416-.096.38.127.876.193 1.136.046.182.028.37.101.517l.183.274c.028.13-.094.238-.142.305-.093.127-.218.223-.304.344-.13.184-.175.387-.355.518-.123.088-.418-.07-.568-.122l-.345-.172-.802-.102-.304-.193-.375-.071c-.152-.102-.56-.534-.599-.73-.047-.24.07-.52-.01-.72-.07-.177-.28-.232-.324-.436l.01-.487c-.037-.108-.148-.155-.203-.244-.105-.17-.087-.411-.203-.557-.07-.09-.18-.127-.274-.193l-.669-.61-.386-.658-.08-.365c-.064-.114-.082-.31-.153-.436l-.254-.295c-.21-.32.187-.546.376-.65m-49.305-.841c.026.21-.058.362-.04.558.385.204.445-.163.608-.284.1-.074.297-.107.436-.132.203.195.051.43-.07.639l-.214.264-.132.304-.12.122-.082.335c-.078.19-.379.372-.558.466-.116.06-.303.285-.487.213-.194-.07-.265-.681-.203-.902.187-.11.825-.374.64-.741v-.02c-.06.005-.673.512-.772.588-.129-.008-.26-.088-.304-.182-.074-.197.15-.348.223-.447.116-.157.173-.4.304-.547.126-.142.341-.193.518-.284.123-.001.172.024.253.05m.528-.781c.034.193-.219.593-.406.619l-.07-.051c-.078-.317.142-.468.354-.588zm20.122-.04c.057.08.073.159.02.253l-.142.01-.08-.101q.009-.045.02-.091l.07-.071Zm-59.41-1.116h.04l.061.05c-.003.046-.008.055-.02.082l-.03.01-.052-.02-.01-.021Zm93.116-.02c.93-.02 1.44.442 2.03.77l.242.082.305.243c.261.152.93-.027 1.217.112.29.14.671.594.811.882l.091.355.376.497.355.183c.073.086.075.232.122.345.056.136.18.21.213.375l-.01.385c.041.232.203.335.273.538l.061.467.173.203.111.446.162.294c.052.1.134.538 0 .619l-.04.01c-.102-.1-.21-.264-.416-.223-.378.28.201.567.213.82-.079.159-.496.646-.7.65-.094-.125-.116-.337-.203-.476-.24-.068-.538-.047-.76-.132l-.64-.304c-.167-.02-.348.226-.588.06l-.456-.628c-.108-.146-.32-.181-.436-.315l-.122-.294c-.065-.111-.165-.192-.203-.335l-.03-.233a5 5 0 0 0-.366-.62l-.142-.141-.04-.264-.254-.436-.08-.274-.184-.152-.1-.304c-.134-.212-.344-.364-.478-.568-.184-.282-.463-.56-.578-.893-.05-.148.016-.365-.04-.497l-.173-.233c-.142-.235-.186-.753.041-.923zm55.15.12q.02.033.04.062c-.07.435-.453.192-.79.345-.122.055-.162.194-.275.254-.09.047-.254.067-.335.01l-.02-.02-.01-.082.335-.314c.134-.201.052-.3.284-.436.297.003.51.12.771.182m-5.508-.67c.052.132-.076.238-.112.336.098.226.447.51.812.395.134-.042.272-.224.466-.182.171.036.242.208.406.253.357.099.444-.162.65-.213.195-.048.444.199.68.223.195.02.255-.161.415-.192.251-.05.611.459.547.659-.093.16-.305-.005-.487.04-.139.035-.258.142-.436.163l-.324-.061-.862-.051c-.219.037-.332.155-.548.193l-.416-.061c-.196-.031-.432.074-.599-.01-.144-.072-.223-.238-.395-.294-.18-.06-.38.033-.578 0l-.376-.112c-.31-.065-.565.125-.76.193-.187.065-.313-.082-.508-.041-.209.045-.353.209-.689.153-.313-.053-.402-.217-.619-.345-.119-.071-.328-.071-.446-.132v-.051c.106-.058.313-.03.405-.101.14-.11.175-.35.355-.416.258-.096.602.216.832.243.28.033.463-.225.71-.274.22-.043.94.647 1.146.264.025-.073-.026-.145-.03-.243.127-.143.305-.302.456-.416l.082-.021c.1.004.19.03.223.102m-101.634-1.085c-.012.179-.153.205-.274.273l-.07-.01-.052-.081c.077-.16.013-.188.183-.304.14-.004.162.039.213.122m-7.375-.487c.05.014.071.027.092.07.07.235-.052.555-.163.66-.06-.001-.068-.01-.1-.03-.055-.237.02-.573.171-.7m103.298-.122c.318-.001.31.199.548.243.215.04.247-.156.385-.192.156-.041.395.162.568.192l3.165.01q.492.044.984.092c.183.035.333.119.497.162l.527.05c.51.08 1.041-.102 1.532-.01.24.046.374.199.61.244.488.095 1.04-.042 1.5.06.264.06.407.227.7.275.366.06.735-.023 1.065.05l.466.173c.362.086.733.037 1.065.122.21.053.341.174.568.213.34.057 1.164-.116 1.35 0l.223.233.436.386.122.152.294.06.304.224.335.11c.136.094.083.378.213.478.184.143.525.176.64.385l.161.589c.063.152.191.255.223.436.05.276-.19.499-.05.71.37.087.437-.414.69-.325l.06.05c-.003.425-.333.64-.578.833-.259.202-.579.614-.933.7l-.457-.01h-.456c-.275-.061-.672-.656-.994-.59l-.264.123q-.294.075-.588.152l-.873.03-.405.264c-.207.083-.644.056-.883.02l-1.5.06q-.21.033-.417.062l-.193-.121-.263-.041-.305-.122c-.177-.07-.519-.073-.598-.243.076-.121.256-.115.395-.173.134-.055.354-.191.437-.304.142-.194.218-.735 0-.882-.122-.082-.33.015-.457-.061-.187-.114-.518-.356-.74-.406-.205-.046-.26.133-.376.183-.196.083-.46.04-.689.09q-.187.062-.376.123c-.19.046-.398-.031-.395-.183-.16.02-.303.117-.507.07-.386-.086-.725-.548-1.055-.618l-2.19.02c-.432-.067-.914-.01-1.37-.01-.723 0-1.529-.042-2.16.06l-.924.022q-.432.12-.862.243h-.437l-1.288.05-.507.163c-.229.04-.465-.031-.669.03l-.589.264c-.248.056-.57-.031-.82.03-.154.038-.213.18-.346.234l-.467.05-.517.214c-.288.078-.58.043-.893.11-.18.04-.255.164-.446.204-.186.039-.374.01-.527.07-.174.069-.456.157-.619.255l-.254.243c-.14.053-.352-.024-.497.02l-.436.234c-.348.15-.637.24-1.014.355-.204.06-.23.253-.538.304-.387.064-.839-.074-1.126-.142-.316-.075-.574-.088-.852-.203-.32-.132-.526-.444-.73-.7l-.406-.314-.112-.254c-.06-.092-.165-.153-.213-.263-.047-.112-.024-.248-.07-.376-.043-.117-.193-.134-.234-.253l-.01-.315-.233-.558.01-.395-.02-.254.162-.324c.025-.102-.018-.207-.03-.274-.03-.162.096-.39.192-.436.26-.14.801.463 1.33.253l.263-.152c.126-.064.263-.081.375-.152l.274-.223c.28-.122.716.037 1.035-.021.2-.036.292-.161.476-.213l.528-.061c.182-.058.282-.222.487-.273.204-.052.453.037.628-.031.125-.048.163-.184.295-.223l.791-.02c.19-.053.27-.243.466-.294.23-.06.54.04.792-.021.16-.04.245-.183.446-.223l.984-.04c.217-.056.35-.206.578-.254.407-.085.88.042 1.32-.03.166-.028.358-.124.546-.092.173.03.363.134.568.102.245-.04.34-.2.548-.244.34-.073.67.073 1.004.02.427-.066 1.057-.084 1.491-.01.2.035.464.214.66.173.12-.026.184-.12.284-.162zm-172.915-.801c.144.005.157.078.244.132l.314.1c.145.06.296.256.386.376.084.114.1.31.243.365.225.084.281-.258.538-.162.286.107.462.57.71.73l.274.082c.253.12.546.29.781.446l.324.132c.275.16.651.37.842.619.2.259.27.589.446.882.117.192.274.379.386.568l.142.355.395.436.092.365c.056.157.18.259.243.396l.041.203.182.223q.098.228.193.456l.132.163.041.233c.035.1.153.12.202.203l.092.365.243.385.031.183c.044.119.186.159.233.284.07.188.05.395.122.568l.172.213.061.345c.05.084.148.133.193.233l.142.447q.086.09.172.182l.03.345.234.365.071.416.213.213.05.386q.098.15.193.304l.132.558.213.223.02.385.224.376.111.446q.102.136.203.274l.041.446.192.233c.07.136.06.313.122.467q.102.136.203.274l.03.477.183.202c.092.153.096.36.162.538.052.137.172.204.213.365l-.01.487.02.548c-.028.133-.12.173-.182.264-.087.127-.1.302-.183.426l-.243.243c-.049.09.014.22-.07.274-.114.026-.21-.116-.306-.152-.273-.106-.684.08-.862-.132-.115-.138-.109-.518-.284-.588-.166-.063-.268.106-.446.07-.273-.054-.505-.265-.71-.395-.107-.068-.214-.085-.304-.162-.37-.318-.704-.918-.852-1.451l-.082-.426-.162-.253-.07-.386c-.066-.173-.193-.296-.265-.446l-.04-.355-.203-.345-.142-.578-.162-.274-.06-.365-.164-.183-.202-.62-.163-.262-.03-.355-.162-.183-.163-.466-.182-.295q-.044-.192-.092-.385l-.172-.213c-.058-.144-.055-.298-.112-.426l-.223-.294-.03-.223-.193-.244-.142-.446-.162-.223-.08-.284-.143-.152c-.084-.141-.093-.305-.173-.437q-.096-.127-.193-.253l-.06-.234-.163-.192c-.122-.231-.215-.448-.355-.66q-.151-.188-.304-.375c-.256-.401-.417-.872-.7-1.248l-.223-.182-.994-1.014-.365-.61-.223-.263-.03-.294c-.055-.132-.177-.214-.214-.375-.073-.32-.125-1.061-.03-1.4.044-.157.17-.26.233-.396l.041-.263c.046-.15.224-.264.334-.355m80.055-1.39c.094.068.088.57.061.74-.044.268-.18.302-.294.477-.147.227-.254.437-.396.67l-.142.213-.07.263-.184.173q-.067.157-.13.314c-.13.2-.31.442-.488.599l-.284.243-.082.193c-.074.127-.18.263-.273.385l-.284.254c-.12.097-.197.244-.295.365l-.456.446c-.244.324-.728 1.085-1.136 1.187-.02-.09-.2-.13-.243-.233-.06-.144.07-.266.091-.375.033-.163-.107-.218-.07-.355.087-.34.444-.324.445-.771-.109-.062-.214-.093-.304-.163-.075-.29.268-.69.588-.568.154.268-.23.4-.243.66.35.16.57-.376.68-.558.223-.37.45-.752.69-1.116.082-.126.285-.165.263-.396-.014-.144-.175-.225-.254-.314.018-.143.208-.268.355-.172l.132.142h.142c.038-.042.065-.065.091-.122-.02-.201-.169-.368.061-.477.16.009.636.262.548-.132-.028-.126-.14-.15-.132-.294.188-.086.188-.27.294-.345.127-.09.426-.001.548-.091.022-.016.323-.74.355-.822l.172-.05c.092-.004.193-.008.244.03m23.753-.67c.275-.003.6-.014.832.05l.64.235.811.02c.248.053.375.243.65.294.215.04.452-.082.617.02l.173.193.294.142.213.345c.155.213.381.414.507.659.068.13.017.3.051.477l.152.477-.03.446.132.477v1.116c-.046.287.024.615 0 .902l.01 2.404c0 .177.018.825-.04.913-.173.255-.89.489-1.32.355l-.659-.365c-.297-.194-.705-.281-.984-.497-.11-.086-.312-.281-.355-.426-.032-.11.014-.273-.04-.355q-.087-.097-.173-.193c-.048-.08-.025-.17-.06-.274-.043-.122-.213-.326-.275-.487l-.08-.344-.183-.274-.01-.518c-.044-.144-.198-.174-.213-.334.053-.091.13-.157.172-.264l.091-.335c.046-.07.162-.075.193-.162.078-.217-.02-.548-.02-.791 0-.273.063-.582 0-.832l-.163-.345-.03-.375c-.004-.011-.462-.47-.487-.487-.179-.121-.424.09-.649.03-.09-.024-.144-.09-.213-.132l-.294-.131c-.106-.083-.132-.3-.203-.416l-.213-.325c-.07-.106-.307-.247-.233-.446.03-.08.125-.118.182-.173.105-.1.18-.21.355-.243.287-.055.61.07.852-.03m-19.909-1.147.041.02c.027.105.066.258.02.376-.03.077-.394.432-.507.385-.075-.031-.113-.094-.112-.202.07-.13.241-.134.325-.244.088-.115.131-.236.233-.335m-64.95-.902c.315-.002.561.038.79.08.266.05.482-.084.731-.01.214.065.302.289.517.335.258.056.411-.153.568-.223l.497-.101c.326-.054.463.148.66.233.127.055.326.049.456.112.182.088.526.479.63.659.06.108.048.279.11.375.142.038.352.03.457.102.083.288.09 1.47.02 1.795-.036.168-.15.273-.203.416-.079.213-.013.545.02.75.05.298-.189.496-.06.76l.081.093.365.09.355.214.233.02c.285.095.508.38.741.538l.365.08c.104.06.148.19.263.244.192.09.448-.042.62.07.05.145.1.544.04.7q-.12.194-.244.387c-.05.127-.032.316-.11.416-.104.13-.416.039-.579.11l-.193.184-.386.12q-.207.128-.415.255-.163.06-.325.122l-.142.11c-.134.047-.333-.067-.446.01a14 14 0 0 0-.477.539l-.203.77-.02.69c-.117.75-.102 1.706-.102 2.547 0 .464-.242 1.273-.01 1.633.047.073.198.134.325.09l.314-.242c.195-.066.392.07.538.1.224.047.347-.114.558-.07l.365.173c.221.059.495-.047.72.01.17.043.254.197.396.263l.385.102c.216.14.337.39.517.568.348-.01.637-.154.842.122.18.24-.067.368-.11.568l-.032.426c-.038.105-.135.169-.192.253-.176.256-.273.56-.528.73-.17.114-.569-.023-.76.082-.092.27-.335.148-.569.274-.13.069-.25.165-.405.223l-.295.06-.172.193q-.208.121-.416.244c-.13.065-.469.06-.568.12l-.162.194c-.29.178-.63.23-.903.426-.183.132-.349.328-.548.446-.139.084-.377.015-.527.092-.357.18-.615.52-.964.72l-.172.05-.396.285-.314.05-.264.264-.467.294-.233.183-.355.08c-.12.069-.187.225-.324.275-.139.05-.36-.025-.477.04-.207.116-.428.346-.67.416-.092.027-.39-.174-.568-.203l-.872-.01c-.305-.078-.494-.364-.71-.537l-.335-.284-.264-.132-.08-.294-.193-.173q-.044-.132-.092-.263-.12-.224-.243-.447l-.03-.791c-.043-.194-.19-.277-.234-.467-.083-.362.083-.966.162-1.237.03-.097.004-.247.061-.314.158-.233.51.135.71.14.107-.068.173-.192.315-.222.41-.086.314.44.74.345.094-.021.428-.382.538-.466.09-.07.224-.085.335-.132.131-.057.25-.151.365-.223l.263-.092.224-.223.304-.03c.074-.021.602-.374.63-.426.063-.133-.075-.27-.113-.376-.155-.433-.6-.623-.73-.983-.095-.263.23-.588.456-.548.14.104.14.362.315.426.41.148.411-.21.456-.518.083-.567-.033-1.31.031-1.896.02-.184-.08-.365-.244-.376l-.233.112c-.133.036-.288-.004-.396.05-.119.06-.152.207-.304.244-.296.073-.552-.06-.77-.101-.204-.04-.303.125-.478.08-.112-.028-.136-.16-.233-.202l-.345-.081q-.181-.158-.365-.315l-.477-.355-.456-.75-.193-.274a6 6 0 0 1-.324-1.035l-.03-.456-.214-.396c-.054-.21.183-.513.365-.527.102.044.146.132.234.182q.177.06.355.122c.077.055.091.167.182.213.052.029.108.016.163 0 .134-.192.335-.292.476-.467.17-.207.353-.471.568-.628.226-.166.512-.24.741-.396.138-.094.264-.358.385-.416l.254-.03.406-.274c.096-.04.207-.035.284-.091.056-.042.08-.111.152-.142.125-.054.282-.057.385-.132l.386-.386c.09-.073.204-.151.253-.264.101-.232.031-1.095.031-1.45v-.517c-.066-.195-.292-.203-.325-.447-.035-.258.126-1.06.01-1.268-.076-.136-.276-.276-.375-.426-.12-.181-.179-.438-.315-.608-.123-.156-.41-.271-.436-.507.054-.128.335-.49.447-.558zm57.03-.193.141.02-.04.08c-.083.022-.139.042-.254.042.022-.092.083-.1.152-.142m46.424-.528c.131-.004.225.002.294.05.006.573-.573 1.022-.933 1.249-.129.082-.237.285-.436.253l-.03-.02c-.039-.203.104-.287.182-.406l.091-.172.274-.254c.176-.247.28-.554.558-.7m-45.43-.233.081.01.041.02.03.153c-.084.17-.446.496-.72.334l-.02-.081c.116-.284.371-.263.588-.436m-37.807-.426c.025.165-.07.25-.173.315-.043-.004-.04 0-.06-.021-.105-.1.03-.268.101-.324.071 0 .086.013.132.03m74.108-.304c.311.356-.075.553-.203.81-.036.024-.054.033-.122.032l-.05-.092c.02-.294.284-.497.345-.75Zm-41.048 2.15c.067-.005.095-.012.112.04.153-.01.231-.252.314-.344.255-.285.582-.456.923-.65.164-.092.39-.052.61-.101.28-.063.512-.243.77-.324.187-.06.424.039.62-.021.234-.072.383-.255.577-.365.16-.09.363-.086.547-.162l.234-.142c.13-.051.29.017.436-.01l.294-.081c.187-.076.33-.302.456-.335.106-.027.193.036.264.05.18.037.693-.132.873-.172l.284-.01c.106-.035.177-.128.263-.183.1-.063.232-.04.294.04.178.23-.056.336-.09.508-.029.139.121.255.03.396-.082.126-.306.128-.396.253-.07.099-.08.245-.132.366l-.264.476-.03.254c-.039.088-.147.112-.203.182-.19.24-.285.41-.385.76-.019.065-.07.088-.102.133l-.172.355-.223.244c-.088.132.016.38-.07.517-.214.332-.522.616-.71.974q-.067.136-.133.273l-.203.264-.06.274-.244.223-.447.578-.172.345q-.106.138-.213.274c-.039.089-.009.223-.06.294-.138.19-.385.315-.529.507-.155.208-.237.49-.395.7l-.396.406-.395.649-.234.234c-.13.177-.209.397-.344.578l-.467.537-.06.264c-.044.096-.188.204-.255.294-.082.113-.309.484-.446.507-.233.067-.61-.712-.77-.852-.282-.244-.627-.497-.75-.892-.108-.337-.124-1.164-.062-1.583l-.01-2.596.01-1.978c.121-.272.716-.488.984-.65.227-.137.357-.315.66-.395.576-.153.576.327.973-.243.258-.048.408-.021.568-.142l.375-.396.436-.051.315-.182c.2-.087.485-.14.618-.295v-.03c-.366 0-.757.137-1.156.07-.356-.058-.428-.412-.862-.07a.27.27 0 0 0 0 .162l.01.02c.246.022.465-.051.467.244-.22.114-.358-.117-.578-.061-.207.053-.184.376-.355.446-.092.038-.615-.265-.853-.263-.049.048-.065.084-.202.08.012-.126.08-.095.111-.192m7.598-4.037c.132.019.212-.09.365-.051.047.068.061.116.05.224-.185.203-.325-.016-.517.09-.268.15-.446.494-.76.589-.143.043-.337.112-.518.08-.087-.014-.187-.065-.304-.04l-.234.072-.324.03c-.142.053-.256.178-.416.223-.113.032-.26.004-.345.06-.107.074-.169.21-.284.285-.233.152-.773.205-1.075.142l-.02-.05c.012-.326.532-.318.73-.467.131-.1.228-.237.406-.294.155-.05.306-.03.426-.102l.263-.192.426-.132.305-.213c.193-.061.387.074.568.02.134-.04.198-.214.314-.284.13-.078.302-.06.457-.122.227.002.315.108.487.132m-10.519-.477.091.04c.036.12.053.448.01.61l-.09.202c-.018.104.074.14.06.244h-.05c-.03-.051-.055-.061-.072-.132l-.142-.03c-.127.085-.2.254-.416.213-.06-.047-.144-.163-.11-.295q.18-.27.364-.537l.142-.081c.086-.08.108-.166.213-.234m48.706-.64c.141-.004.228.054.233.184-.037.08-.158.232-.294.172l-.02-.02c-.078-.114.023-.282.081-.335m-9.454-1.004c.066.15-.339.597-.487.436-.09-.053-.119-.382-.06-.487.034-.073.091-.084.162-.121.163-.003.334.065.385.172m9.12-.882c.114.187.376.323.435.558.058.229-.368.565-.07.872.106.11.3.019.476.05.197.036.222.223.386.264.124.032.247-.027.324.04.125.075.088.3.132.457.036.13.144.218.244.284.624.414 1.406-.265 1.866.386.048.068.112.132.081.253-.09.21-.355.295-.487.467q-.06.147-.122.294l-.213.274-.81.832c-.375.495-.64 1.004-1.076 1.44a8 8 0 0 1-.578.517l-1.207 1.228-.73.73c-.095.119-.08.324-.173.457l-.142.1-.578.599c-.07.092-.06.227-.122.335l-.365.497c-.173.043-.44-.01-.487-.152-.03-.093.006-.243.02-.335.041-.265.013-1.031-.05-1.207-.164-.107-.322.027-.457-.04-.183-.096-.008-.88-.102-1.106-.056-.136-.339-.514-.476-.568l-.457-.041c-.163-.047-.596-.428-.527-.7.032-.126.24-.208.324-.294l.457-.537.882-.517.142-.508c.13-.223.454-.274.558-.527l.041-.203c.04-.103.135-.163.162-.294.04-.193-.035-.371.02-.528l.284-.547.082-.436.162-.213.101-.284.203-.295c.073-.121.071-.272.132-.416l.142-.182c.088-.156.135-.318.223-.467l.163-.355.172-.233.041-.294c.045-.114.378-.546.476-.62.684.002.294.632.497.965m-49.527-1.796c.282.35.295.859.385 1.42v.386c.06.37.06.525 0 .882-.083.492.064 1.076.477 1.045l.03-.04c.043-.118-.06-.257-.08-.366l.04-.061a.44.44 0 0 1 .375.234l-.05.213.08.07q.036.006.071.01c.05-.074.016-.141.051-.253q.097-.182.193-.365a.23.23 0 0 1 .121-.051c.235.154.491.603.376 1.015l-.193.466c-.048.286.254.564.162.863-.04.135-.215.364-.334.426-.194.1-.382-.1-.579-.021-.308.125-1.075.78-1.5.66l-.072-.051c-.042-.208.101-.345.061-.558-.027-.148-.116-.307-.07-.497.05-.21.204-.353.151-.68-.064-.397-.158-.63-.223-1.024a2.6 2.6 0 0 1 .01-.741c.071-.45.045-.8.152-1.186l.254-.69c.044-.151-.04-.26-.07-.365-.075-.247-.01-.605.1-.741Zm57.936-.517c-.09.23-.577.614-.75.832l-.477.72-.507.588c-.122.166-.25.43-.426.538-.393.24-1.203-.406-1.48-.477l-.296-.03c-.154-.061-.248-.197-.436-.244-.19-.047-.403.009-.487-.142-.12-.22.158-.364.284-.416.21-.085.382.044.568.05.242.01.432-.068.63-.11l.283-.031c.366-.1.572-.491.842-.7l.518-.314.426-.315.263-.091.203-.203q.179-.127.355-.253c.254.02.633.225.487.598m-7.05.05c.03.173.134.375.102.548-.217.097-.479-.171-.629-.233l-.284-.071c-.077-.051-.149-.227-.122-.375.008-.043.41-.637.447-.67l.182-.081c.455-.006.24.5.304.883m-88.4-2.283.01.02c-.02.31-1.192.658-1.186.05.135-.147.328-.108.537-.191.265-.001.476.03.64.12m-1.695-2.88c.452-.006.747.099 1.086.173l.466.02.345.082.933.03c.192.046.274.212.467.254l.65.02c.2.056.295.245.516.294l.64.03c.162.043.225.198.425.234.241.043.516-.087.721.01l.294.193.395.1.335.214c.313.129.597.233.862.416l.122.142.314.112c.14.094.237.253.386.344.131.08.286.088.436.163.232.115.398.383.6.537.297.23.535.51.77.802.136.17.332.3.456.487l.355.628.051.213c.108.175.238.343.324.558.103.256.12.609.234.852l.172.244c.062.168-.04.376.01.548.052.18.241.252.294.436l.021.416c.083.543-.068 1.184.02 1.754.038.25 0 .513 0 .792 0 .455.04.984-.03 1.389l-.183 1.167.03.639c-.03.16-.11.297-.142.476l-.02.792c-.045.144-.233.19-.294.334-.075.179.001.51-.102.66-.058.084-.18.112-.263.172a1.7 1.7 0 0 0-.416.477c-.063.108-.024.286-.07.416l-.184.314q-.06.173-.122.345c-.115.259-.317.524-.426.79l-.1.316-.244.345-.02.405-.224.305-.142.588-.182.162-.06.477c-.128.309-.356.61-.498.903q-.037.162-.07.324c-.125.203-.36.35-.478.548-.072.12-.042.324-.102.436-.074.139-.158.33-.253.467q-.12.116-.244.233l-.03.355-.193.396c-.088.149-.237.242-.324.375-.08.122-.04.356-.112.477l-.264.477q-.106.09-.213.182l-.04.152-.183.315q-.075.197-.152.395l-.172.203-.08.538-.144.192-.07.264-.285.487-.02.294-.223.244q-.06.126-.122.253l-.223.325-.07.345c-.119.2-.332.325-.457.507-.096.139-.09.339-.152.507l-.183.355c-.034.125-.023.223-.08.315l-.153.192-.132.335c-.128.173-.358.272-.436.497l-.06.609-.448.446q-.075.178-.152.355c-.135.19-.372.415-.487.598l-.04.274-.162.203-.112.355-.193.233-.1.335c-.045.099-.148.143-.184.254l-.09.466c-.1.237-.274.378-.407.568-.093.133-.089.349-.182.487l-.254.203v.345l-.233.203a4 4 0 0 0-.294.466l-.04.284-.214.345-.09.467a4 4 0 0 1-.285.538l-.142.162c-.06.13-.058.24-.132.345-.136.19-.328.368-.457.568-.072.112-.019.3-.06.456-.044.166-.187.21-.244.335l-.05.294c-.043.106-.156.14-.203.233l-.132.487-.173.264-.06.233-.214.294q-.075.259-.152.518c-.212.38-.459.768-.679 1.146l-.06.243c-.06.087-.167.135-.224.234-.174.299-.213.65-.396.943l-.112.1c-.094.127-.109.32-.192.448l-.183.233-.01.264c-.026.074-.14.142-.183.223l-.324.76-.284.518c-.13.32.07.626-.06.943-.079.19-.235.329-.316.528-.04.1-.003.236-.03.345q-.136.365-.274.73c-.09.209-.273.353-.385.538l-.163.426a10 10 0 0 1-.344.608q-.076.193-.153.386l-.233.385c-.06.15-.052.305-.132.426-.303.457-.762.827-1.166 1.187-.07-.002-.074-.014-.112-.041l-.01-.02c.011-.297.462-.415.254-.771-.195-.056-.63-.025-.792.07-.105.064-.156.194-.294.224-.368.08-.37-.28-.588-.334-.165-.042-.345.1-.467-.011-.113-.081-.013-.34-.09-.456-.09-.135-.416-.067-.518-.203q-.121-.187-.244-.375l-.09-1.217c-.048-.212-.266-.361-.234-.61.018-.145.111-.223.172-.324.092-.151.423-.825.365-1.055-.038-.151-.512-.596-.639-.72-.07-.068-.24-.157-.182-.314l.04-.061c.114-.01.176.032.274.05l.284.01c.124.035.353.29.416.396.122.207.136.647.548.508.193-.066.102-.281.203-.437l.355-.385c.175-.247.27-.547.446-.781l.203-.183.132-.355.172-.182.375-.731.183-.202.081-.315.162-.203.132-.375.487-.517.112-.294c.222-.365.48-.742.7-1.106l.334-.791c.06-.14.163-.243.234-.365.06-.105.062-.215.142-.295l.03.01.02.02c.083.313-.129.477-.213.69l-.07.325-.234.335c-.11.188-.163.385-.274.568l-.253.365c-.095.156 0 .399-.08.528q-.25.247-.498.497l-.082.223-.202.294-.082.314-.213.294-.06.274-.234.284c-.11.279.091.738-.05 1.005l-.203.172-.274.426c-.049.133.082.197.05.355l-.09.264q-.007.177-.01.355c-.047.17-.273.158-.234.385.27.396.566-.235.67-.385q.136-.27.273-.538l.304-.416.163-.121.05-.355c.116-.28.327-.508.497-.731l.376-.882c.133-.22.374-.377.466-.64.08-.226-.025-.618.092-.811l.223-.213.111-.355c.234-.346.615-.615.842-.974.064-.101.042-.255.092-.375q.075-.112.152-.223l.121-.345c.17-.39.471-.716.67-1.075l.122-.446c.095-.232.277-.385.395-.59.126-.216.036-.56.132-.81l.172-.284.142-.457.69-.7c.146-.198.203-.458.396-.608l.051.02c.172.545-.253.86-.477 1.167l-.274.558c-.044.143-.06.278-.132.395l-.132.193c-.059.15-.027.303-.11.416-.12.159-.37.254-.448.446l-.06.588-.143.213-.182.406-.233.233-.01.274-.203.325q-.044.183-.092.365l-.294.528c-.059.076-.15.129-.193.223-.083.187-.066.474-.162.639-.077.13-.098.318-.183.456-.065.107-.195.156-.263.254l-.06.213q-.093.135-.184.274l-.08.385c-.026.078-.38.344-.224.467.19.057.301-.208.396-.295.118-.107.26-.184.355-.314.072-.097.061-.216.111-.345l.396-.578c.158-.222.314-.478.426-.751l.111-.375c.223-.376.494-.75.721-1.126l.152-.456.203-.234.081-.314.203-.345.071-.284.253-.284c.07-.158.047-.371.112-.517.062-.141.19-.167.304-.254l.325-.365c.066-.092.043-.251.091-.365.046-.11.182-.141.243-.233l.092-.315.213-.233.111-.396.142-.253.081-.274.193-.325.112-.527.192-.193.082-.254.162-.304c.155-.325.194-.692.375-.994.212-.353.516-.643.761-.964l.345-.547c.083-.13.212-.221.274-.376l.121-.67c.006-.156-.089-.314-.03-.466.051-.13.25-.298.385-.345.128-.044.29-.03.355-.131.124-.191-.07-.491.051-.68.141-.22.29-.49.436-.71l.183-.436c.092-.134.435-.434.477-.538.058-.144.017-.338.071-.466.062-.15.186-.256.223-.437l.01-.466c.012-.032.45-.592.487-.62.085-.061.234-.075.294-.161.11-.157-.06-.433.041-.61q.127-.135.253-.273l.051-.345c.123-.195.434-.283.527-.507.06-.14-.01-.316.031-.476.044-.174.211-.212.263-.355l.011-.457.253-.385.071-.406c.1-.253.391-.373.497-.63.076-.182.011-.407.061-.648.031-.151.147-.221.193-.345.123-.333.144-.635.304-.913l.304-.548.193-.233c.073-.181.062-.377.152-.527l.213-.335.244-.254.091-.487.284-.436c.077-.1.205-.142.243-.284.057-.211-.01-.52-.04-.71-.044-.275.065-.593.071-.842.003-.14-.065-.288-.01-.416.054-.125.198-.11.304-.182q.097-.132.193-.264c.111-.076.238-.072.294-.203l.071-.335.213-.405c.09-.22.071-.738.02-.994-.047-.238-.323-.328-.274-.62.037-.22.172-.326.224-.506.04-.14-.028-.257 0-.406l.101-.274c.06-.23.07-.68.01-.892h-.05c-.096.108-.352.075-.427.202-.09.155.06.397-.02.568l-.193.274-.06.396-.254.396c-.058.182.036.418-.01.598-.033.128-.16.209-.223.314l-.102.355-.02.558-.142.325-.07.487q-.062.135-.123.274c-.039.206.098.398.031.568q-.072.075-.142.152l-.092.294-.446.487c-.179.103-.479.002-.588.172-.076.119-.034.332-.06.497-.042.248-.083.502-.184.71-.063.13-.314.082-.385.224-.19.378.293.478.395.639.16.249.013.78-.172.872-.064.03-.112-.004-.162-.041-.06-.171.208-.651-.01-.811-.163-.1-.435.077-.498.162-.155.209-.045.45-.142.68-.095.227-.365.32-.497.507-.063.09-.037.264-.08.375-.036.09-.13.184-.072.315.112.024.24.006.325.06l.02.082-.08.1c-.183.005-.24-.072-.326-.161l-.05.01c-.238.118-.116.43-.223.68-.07.16-.3.114-.386.243l-.06.325c-.06.14-.649.76-.812.78l-.02-.01c-.025-.25.337-.854.466-1.024l.294-.243.081-.295c.044-.1.151-.148.183-.263l.03-.477.203-.325.102-.345.182-.142.112-.334.182-.325.071-.487.142-.152.112-.284.233-.294.092-.497.213-.335c.075-.1.214-.15.263-.274.058-.144-.026-.324.011-.487.035-.157.201-.177.253-.304.064-.155-.04-.342.01-.507l.264-.365.081-.457.142-.203c.068-.124.063-.28.122-.426.055-.137.174-.241.223-.395l.071-.487.223-.254c.065-.161-.043-.368.01-.537.048-.152.215-.21.274-.355.078-.192-.024-.5.051-.7l.203-.315.101-.476.223-.497.01-.832c.042-.192.198-.268.234-.446l-.01-.518c-.009-.403.011-.81.091-1.146.06-.256.28-.538.213-.862l-.264-.67-.05-1.054-.173-.305-.07-.355-.255-.395-.08-.264c-.18-.29-.47-.538-.67-.812l-.173-.314c-.212-.27-.66-.501-.953-.7-.126-.086-.19-.223-.365-.264l-.477-.01c-.16-.047-.247-.201-.385-.243h-.792c-.236-.047-.329-.211-.578-.254-.329-.057-.592.066-.852.112l-.527-.01c-.38.06-.824.074-1.177.132l-1.298.01-.416.02c-.132.045-.222.16-.386.193l-.385.01-.598.132-.437.02-.304.162-.385.05c-.144.059-.207.215-.376.255l-.446.04-.538.233-.405.05-.78.478-.458.08-.832.326c-.103.044-.156.138-.243.192-.267.167-.524.269-.832.406q-.081.06-.162.122c-.176.082-.427.04-.578.142-.136.09-.173.283-.305.375l-.476.162c-.209.13-.379.363-.619.457l-.325.06c-.094.066-.155.194-.253.264l-.426.284-.183.03-.355.224-.395.172-.173.122c-.11.039-.27-.004-.365-.02-.305-.052-.598.105-.872.02-.124-.038-.17-.158-.284-.193l-.223-.04c-.403-.164-1.38-.962-1.532-1.35-.077-.195.023-.461-.05-.648-.054-.135-.178-.213-.224-.366-.075-.251-.066-.947-.02-1.237v-.467c.045-.202.198-.264.263-.426.07-.171-.014-.397.071-.537.201-.063.57-.078.68.07.058.079.067.15.162.194h.142l.193-.224.304-.081.335-.213.396-.122.121-.111c.15-.071.336-.071.477-.132.136-.06.23-.194.355-.243l.315-.011.142-.131.527-.234.183-.162.385-.061c.133-.034.203-.132.325-.172.188-.062.401-.053.568-.122l.385-.243.254-.011.192-.172c.158-.096.384-.09.568-.162l.335-.173c.191-.065.446.016.64-.04.131-.04.186-.173.304-.213l.628-.051c.293-.074.551-.206.863-.274.276-.06.684.044.973-.041.162-.047.267-.182.457-.223l1.024-.04c.268-.063.368-.23.67-.274.187-.028.376.054.527.08.234.042.363-.115.61-.07.372.069.5.073.881 0zm36.307-3.946 2.393.01c.2.044.307.238.528.284.196.04.382-.003.548.06l.202.153c.155.047.273.052.386.132.184.13.401.338.537.517l.203.315c.166.105.47-.126.59.04.13.183.09 1.4.09 1.775v4.656c0 1.794-.02 3.624-.02 5.386l.01 1.035c-.02.128-.062.335-.01.456.053.128.314.27.476.284l.183-.111.375-.071c.247-.127.404-.342.71-.436l.822-.122.477-.233.476-.092.274-.172c.208-.061.465.022.67-.041l.69-.284.618-.02c.157-.035.21-.21.376-.253l.69.01c.355-.068.692-.262 1.024-.325l.963.01c.221-.045.31-.212.538-.253.35-.063.5.179.832.11.097-.018.202-.113.334-.08l.234.172.7.305c.462.143.913.134 1.288.355.317.186.616.489.761.842l.071.355c.08.122.244.044.416.08.131.029.305.14.365.244.154.27-.203.375-.244.558-.063.286-.006.762.092.923.054.09.22.223.182.386-.026.113-.384.4-.477.558-.063.107-.052.258-.09.395-.06.214-.188.343-.275.517l-.08.224c-.043.055-.154.097-.234.11l-.112-.1c-.45.012-.43.273-.619.527-.082.112-.215.192-.294.315l-.1.284-.234.253c-.279.377-.545.745-.832 1.106-.147.185-.287.386-.436.578q-.209.233-.416.467c-.055.103-.029.239-.07.365l-.194.264c-.08.143-.08.338-.172.466-.11.155-.277.269-.386.416l-.182.335c-.087.11-.308.265-.376.365-.084.124-.1.279-.182.395l-.315.305c-.088.11-.107.293-.192.406l-.74.78-.315.508-.305.355-.06.274-.376.375-.497.71-.213.223-.172.375-.294.345-.112.264-.172.172-.122.295c-.085.14-.329.279-.223.568l.263.324.021.294.02.224c-.034.134-.185.2-.254.304l-.1.264c-.074.123-.536.713-.64.76-.377.089-.254-.39-.436-.517-.159-.111-.72-.126-.954-.061-.124.035-.184.127-.304.173l-.05-.031c-.035-.165-.028-.371-.092-.507-.169-.362-.659-.53-.893-.842-.113-.151-.108-.408-.263-.517-.17-.12-.496-.018-.558.132-.122.293.09.949.02 1.399l-.02 1.563c0 .355-.083.659-.02 1.004l.07.405.142.305v.537l.011.78c-.04.183-.149.297-.183.498-.045.267.057.744-.203.78-.135-.202-.056-.45-.1-.75-.04-.26-.119-.443-.164-.67l-.01-.485c-.044-.235-.217-.34-.263-.57-.053-.258.115-.334.162-.485.048-.156.026-.4.051-.538.061-.35-.155-.47-.203-.71-.06-.296.218-.487.142-.923l-.203-.67c-.07-.108-.206-.102-.223-.273.057-.128.2-.143.253-.254.09-.188-.048-.52-.02-.751.02-.155.072-.231.122-.334a.27.27 0 0 0-.02-.234c-.119-.192-.338-.163-.528-.284-.075-.283.062-.636-.03-.913l-.203-.568-.112-.121q-.06-.27-.122-.538l-.213-.345c-.06-.125.005-.363-.05-.497l-.234-.294c-.052-.182.1-.344.021-.527-.108-.25-.455-.291-.568-.528-.072-.284.611-.557.75-.72l.132-.294c.047-.068.166-.194.274-.162.165.023.481.347.274.507-.154.118-.342-.027-.497.12.003.27.28.318.436.438.083.063.121.189.223.233.131.056.287-.001.325-.102l.04-.507.092-.334-.082-.903.021-.842q-.044-.183-.092-.365c-.03-.177.046-.356.071-.507.031-.182-.013-.386-.04-.518-.085-.417.311-1.246-.386-1.085-.084.108-.179.324-.314.375-.17.065-.435-.078-.609.02l-.152.153a7 7 0 0 1-.446.304c-.24.153-.508.155-.629.426l-.254.669.041.325-.132.375c-.052.226-.035.519 0 .74l-.02.457.061.335-.01.467c.042.162.204.265.162.497l-.08.405c-.04.092-.112.167-.133.284-.03.177.09.275.122.396.038.144.058.287.081.406.041.222-.127.3-.092.527l.051.436.132.406-.05.903c-.035.22.022.436.05.608.066.402-.055.784-.1 1.096l.11.619-.01.618.03.467.122.598-.06.457.05.75q-.075.234-.152.467c-.074.398.195.695.253 1.004.067.354-.216.384-.263.629-.086.444.19.765.253 1.085.065.326-.143.574-.192.873-.032.193.015.4.04.548l-.01.486.071.355c.053.303-.068.625-.112.873-.044.255.1.41.051.659-.018.092-.068.233-.03.355.045.146.208.252.304.355-.002.145-.057.193-.09.294-.036.104-.12.733-.103.842l.102.467.142.284-.02.284.121.446-.02.558.101.7c.05.319-.008.724-.05.974l.05 1.044-.01 1.806c.036.2.176.288.213.467.072.343-.302.393-.243.72.03.169.147.248.213.375.052.102.06.23.081.365l.01.7v.74l-.01 1.755.02.903-.01 1.055c.047.252.285.405.223.74-.042.226-.256.399-.203.68l.213.517-.01.609c.07.376.186.904.112 1.379l-.01.812c-.073.47-.024 1.077.05 1.46.044.223-.113.428-.07.7.036.239.004.49-.03.71q.004.68.01 1.36c0 .53-.12.995-.042 1.49.03.184.01.443-.08.518l-.04-.01c-.114-.31.048-.674-.01-1.025-.129-.754-.194-1.591-.275-2.312-.025-.221.022-.42.05-.59.048-.283-.015-.615-.05-.84l.02-.305c.004-.346-.018-.827-.152-1.055l-.06-.01c-.1.105-.184.378-.143.578.011.054.047.12.03.203l-.07.294c.013.124.104.228.07.376-.042.189-.096.527-.06.76l.02.305c-.05.27-.144.667-.09 1.004q.008.548.02 1.095-.007.488-.01.974c-.049.252-.208.39-.255.66-.069.397.145.848.203 1.196.056.339-.093.61-.142.883-.063.352.085.7.02 1.045l-.1.426v.608c0 .637.061 1.338-.042 1.917-.042.238-.188.376-.233.619l-.07 1.48c0 .303.028.61-.072.823-.137-.031-.155-.243-.203-.365-.244-.626-.089-1.723.081-2.293.04-.133.014-.272.041-.436.138-.835.051-1.863.051-2.8l.02-.963.01-.812v-1.197l.233-1.207-.02-2.394.01-1.491-.04-1.643v-.608l.01-5.133-.01-1.32.02-.516c-.03-.192-.076-.438-.04-.66l.02-.466c-.048-.247-.294-.37-.234-.74l.102-.802c.036-.137.132-.23.162-.385l-.01-.67c0-.592.03-1.224-.05-1.724-.05-.3.123-.534.07-.852-.046-.274-.307-.437-.253-.72.044-.235.193-.346.243-.568.087-.39-.139-.662-.07-1.045a6.5 6.5 0 0 0 .07-1.106v-.426c-.034-.2-.137-.32-.172-.486l.03-.447c-.093-.608-.08-1.301-.08-2.018v-.903q-.014-.646-.032-1.288l-.01-.974.041-1.055c-.048-.305.045-.662-.01-.984-.077-.448-.154-.978-.224-1.41l.011-.517c-.04-.223-.06-.468-.102-.73v-3.753l-.07-.416c.063-.326.135-.9.07-1.31-.037-.234-.102-.416-.142-.607l-.01-.355-.09-.457-.01-.406-.022-2.191c0-.257.023-.526-.03-.75-.118-.502-.558-.131-.75 0q-.158.1-.315.203-.136.157-.274.314l-.254.132c-.185.133-.308.334-.517.456l-.274.102c-.187.079-.393.223-.578.335-.245.148-.418.389-.649.537l-1.187.639c-.13.096-.222.232-.335.345-.189.189-.829.295-.902.538-.122.403.48.686.69.83.55.384.998.89 1.572 1.239.303.184.774.32.912.659.048.117.017.25.041.406.11.718-.323 1.079-.568 1.48-.098.162-.002.519-.203.579-.124.038-.248-.028-.345-.03-.134-.004-.26.09-.395.04l-.66-.547-.74-.274c-.116-.028-.243-.004-.335-.051-.248-.128-.398-.427-.679-.538-.13-.051-.29.036-.437-.01-.098-.031-.124-.17-.202-.223-.253-.173-.546-.244-.782-.426-.233-.181-.395-.467-.628-.64-.14-.102-.34-.131-.477-.232-.399-.295-.782-.658-1.187-.944l-.385-.213c-.114-.085-.139-.278-.254-.355a7 7 0 0 0-.558-.162h-.264a4 4 0 0 1-.578-.193c-.132-.051-.216-.176-.324-.253l-.578-.345a1.35 1.35 0 0 1-.366-.477l-.07-.213-.163-.162c-.102-.164-.076-.401-.142-.61-.053-.166-.179-.268-.213-.455l-.01-.467c-.046-.194-.212-.31-.244-.497-.033-.197.184-.313.234-.456.063-.184-.049-.513.05-.68.06-.1.265-.334.376-.375l.284-.02c.082-.016.2-.033.274.01l.984.943.111.142c.122.085.356.02.528.06l.63.275c.225.162.56.802 1.023.547l-.01-1.196c.043-.197.243-.235.284-.447.051-.265-.078-.673.04-.872a.56.56 0 0 1 .396-.284l.233-.02.284-.224.345-.111.193-.183c.125-.052.25-.03.345-.101.131-.1.227-.258.365-.355l.385-.193q.179-.112.355-.223l.305-.061c.116-.05.117-.201.263-.233.171-.038.472-.001.568.06.086.055.101.138.234.153l.64-.457.252-.06.254-.203c.098-.055.24-.048.325-.112.161-.12.263-.323.436-.436.107-.071.271-.07.375-.132l.314-.223.244-.02q.096-.098.193-.193l.233-.081.325-.203c.111-.067.31-.053.426-.132.071-.05.086-.151.182-.183l.304-.03c.205-.061.34-.193.508-.284.07-.04.158-.028.202-.091.05-.072.22-.422.193-.538-.034-.154-.175-.278-.132-.507.056-.294.218-.492.274-.832v-4.29c-.047-.273-.187-.457-.223-.751-.032-.26.147-.423.183-.64.035-.213-.136-.372-.193-.516-.049-.125-.057-.262-.08-.416q-.007-1.892-.01-3.784c0-.413.075-1.086-.032-1.43-.099-.322-.31-.578-.456-.842l-.132-.314c-.08-.074-.213-.055-.325-.102l-.365-.304c-.177-.23-.16-1.052-.01-1.298.08-.13.185-.181.325-.254m48.32-1.988c.383.01.548.408.812.568.183.11.372.18.537.304.343.258.574.657.903.923.408.33.818.715 1.146 1.126.147.184.47.71.294 1.126-.1.242-.396.404-.537.619-.205.309-.395.665-.639.943l-.416.375-.173.305-.497.629-.476.476c-.224.289-.434.569-.639.873l-.163.172-.233.497-.365.416-.416.67-.426.466c-.066.093-.065.246-.132.345l-.264.254c-.132.169-.276.332-.405.497l-.396.659c-.143.219-.359.41-.497.639l-.112.254q-.181.188-.365.375c-.086.114-.104.253-.182.385l-.477.599c-.053.079-.04.193-.09.284l-.65.74c-.16.126-.35.153-.558.244-.177.077-.356.259-.497.385q-.112.12-.224.244c-.084.135-.24.652-.436.598l-.05-.03c-.038-.23.085-.281.121-.457l.021-.284.142-.233c.04-.167-.039-.326-.142-.355-.252-.072-.302.215-.386.324l-.274.213-.152.295-.203.233c-.107.176-.102.406-.355.436l-.02-.01a1.37 1.37 0 0 1 .385-.933c.076-.076.194-.135.244-.234.064-.128.026-.332.101-.446.166-.25.376-.515.568-.751l.457-.466.355-.61.253-.252.082-.254.121-.122.244-.618.132-.345c.093-.117.36-.16.476-.254l.163-.193c.201-.202.421-.346.527-.65.072-.205-.01-.552-.183-.628-.112-.027-.68.468-.852.548-.165.078-.31.206-.476.254-.154.044-.35.01-.467.09-.066.047-.076.136-.122.204l-.213.203c-.065.097-.076.224-.142.314l-.243.264c-.107.172-.163.364-.284.517-.114.145-.289.244-.386.406l-.1.365c-.082.14-.296.192-.346.365-.05.177.106.298.152.406-.007.068-.029.099-.08.122l-.336.05c-.162.072-.49.617-.618.782l-.295.253-.304.467-.608.75-.173.345c-.149.233-.356.46-.497.7-.137.234-.172.504-.324.72-.359.509-.74 1.037-1.096 1.552-.086.124-.105.299-.193.416q-.181.172-.365.345c-.163.098-.408.143-.527.284l-.305.446-.12.284-.295.365q-.09.082-.183.163c-.064.099.016.272-.05.365l-.74.72q-.18.31-.356.619l-.244.274-.03.233-.254.396-.08.314-.123.112c-.113.165-.167.352-.284.507l-.294.314c-.16.218-.253.496-.395.72-.187.294-.469.567-.69.842l-.223.203c-.128.158-.266.332-.426.457q-.143.09-.284.182l-.163.274c-.1.098-.37.134-.497.233q-.15.183-.304.366l-.76.72c-.132.183-.19.404-.315.598q-.233.25-.467.497l-.395.446c-.056.086-.067.209-.152.264l-.112.02-.02-.03c-.02-.071.04-.151.061-.213l.101-.345.467-.548c.053-.084.048-.19.091-.294l.182-.233.112-.335c.103-.167.39-.361.467-.507.058-.11.028-.268.091-.365l.213-.233c.214-.32.39-.638.62-.934l.202-.152c.065-.098.04-.298.111-.405l.446-.477.122-.284c.118-.19.292-.354.416-.528l.243-.466c.094-.152.267-.28.345-.426.082-.152.101-.306.193-.436.168-.24.4-.421.558-.67.09-.141.104-.36.203-.507l.578-.781.142-.102.142-.385.416-.497c.153-.221.248-.46.406-.67l.162-.131.132-.325c.132-.225.321-.46.436-.69l.071-.223.243-.243.041-.294.568-.528c.167-.156.402-.382.507-.588l.091-.376c.046-.064.143-.053.183-.131l.041-.264.273-.396c.112-.186.17-.357.284-.527l.264-.284c.045-.075.025-.201.071-.284l.477-.568.101-.274c.134-.227.362-.368.497-.578l.092-.244q.127-.173.253-.345l.72-.75c.232-.25.407-.58.62-.842.201-.25.445-.467.648-.72l.142-.102.122-.355.457-.63.111-.252c.206-.295.558-.532.741-.822l.06-.294.203-.203c.095-.14.128-.348.234-.497.183-.258.441-.465.608-.74.05-.083.044-.17.081-.274l.183-.294.091-.234c.12-.206.38-.33.497-.527.097-.164.13-.323.234-.467.094-.13.248-.238.334-.365.072-.106.065-.274.132-.375l.436-.477.142-.345.193-.223v-.456c.032-.155.172-.23.233-.355l.082-.254c.14-.241.313-.453.486-.66l.295-.263.06-.294.203-.223c.066-.152.083-.288.163-.416.053-.086.151-.146.182-.254l-.01-.466c.027-.126.237-.351.335-.416.155-.104.484.014.67-.061m7.333-1.684.477.02c.177.053.302.167.497.203.442.082.9.07 1.41.07h.588l.314.224c.197.079.427.053.61.132l.202.173.335.04c.125.039.208.135.304.203.232.165.371.206.436.548.057.3.044.84-.05 1.065-.067.157-.229.249-.275.426l-.04 1.085c-.033.149-.158.23-.213.355l-.04.335-.224.264c-.08.133-.048.349-.122.497-.107.215-.307.388-.436.578-.08.117-.026.325-.08.477-.072.196-.503.57-.194.872.206 0 .292-.162.426-.243l.487-.274.305-.01c.086-.042.134-.16.233-.203l.477-.142c.095-.048.15-.151.263-.183l.507-.03q.098-.087.193-.173l.386-.142.294-.213.324-.05q.157-.098.315-.193c.227-.082.48-.067.68-.162q.105-.083.212-.163l.477-.03c.188-.052.266-.213.477-.254.195-.038.442.032.578-.061.118-.08.117-.314.173-.456l.243-.517.243-.254c.06-.081.055-.157.153-.203.14.04.328.099.517.07q.243-.008.487-.02l.365.275c.175.075.446.024.64.08l.415.275c.277.068.563-.168.842-.051l.274.203.405.182c.203.154.365.367.62.467l.313.07c.112.048.17.153.305.184.183.04.392-.017.517.07.255.178.324.566.568.75.113.087.441.01.517.133.261.274-.348.942-.547.984-.285.06-.442-.175-.66-.112-.177.052-.278.247-.426.335-.126.076-.336.048-.487.102l-.273.172-.67.142c-.215.083-.403.16-.639.254l-.365.192c-.18.052-.336-.08-.507-.01-.133.054-.165.203-.274.274-.106.069-.262.028-.396.08l-.172.153-.599.132c-.158.057-.243.19-.426.234-.483.11-.686.386-1.085.557-.254.11-.545.139-.75.295a.33.33 0 0 0-.072.415c.117.02.22-.036.355-.01.247.048 1.123.438 1.228.589l.071.334c.08.213.214.37.304.589.091.22.396.363.284.72-.047.149-.179.208-.253.324l-.05.224q-.073.11-.143.223l-.822.852-.517.8-.74.752c-.198.254-.339.564-.538.81l-.832.813c-.074.096-.085.236-.152.345-.085.136-.37.324-.183.578.094.126.363.127.487.223l.447.446.365.152c.193.127.33.322.537.437l.335.11.741.72.314.113 1.207 1.166.578.406.233.09.295.316.994.963q.36.233.72.467l.761.76c.308.24.665.427.973.67l.71.7.264.09c.121.09.136.277.244.377l.375.233.72.639q.386.248.771.497c.352.269.601.674.953.933l.376.142.771.74c.247.195.547.326.791.518l.903.872.456.264.62.548c.201.14.437.23.628.375l1.095 1.045q.137.075.274.152l.598.487c.398.31.723.735 1.126 1.045l.721.487 1.115 1.115.497.386c.22.28.427.547.66.81.141.162.353.257.487.427q.142.233.284.467c.14.159.395.224.527.385l.162.234.173.142c.08.105.108.265.213.344.196.149.455.259.598.457.073.1.166.244.193.375.053.262-.043.346.112.568.174.25.574-.041.74.203l.162.406c.122.19.366.286.487.466l.081.254.294.396c.084.097.303.064.406.142l.487.669c.111.08.288.086.396.162.418.297.725.756 1.156 1.045q.147.06.294.122l.162.182c.096.05.234.009.315.06l.213.245.487.243.345.04c.167.059.234.222.405.275.176.054.558.179.457.405-.364.093-.477-.167-.7-.253-.188-.073-.362.069-.558.02-.14-.035-.188-.19-.314-.243l-.295-.051-.263-.213-.254-.091-.243-.193-.578-.325-.315-.284c-.183-.118-.407-.176-.598-.294l-.578-.477-.295-.142-.192-.365a2.5 2.5 0 0 0-.558-.568c-.108-.076-.24-.081-.365-.152l-.203-.243-.406-.355-.233-.335c-.15-.19-.376-.33-.568-.477l-.426-.436-.355-.213c-.094-.071-.123-.19-.193-.284-.086-.117-.242-.173-.355-.264q-.136-.173-.274-.345l-.314-.162-.66-.517c-.132-.106-.437-.37-.537-.497l-.224-.315c-.198-.14-.42-.224-.608-.375-.11-.09-.146-.266-.254-.355l-.263-.142-.264-.243-1.177-.863c-.444-.35-.779-.88-1.237-1.227l-.66-.426-.375-.355c-.205-.133-.426-.21-.619-.355-.12-.091-.16-.234-.253-.355q-.132-.097-.264-.193l-.183-.203c-.087-.06-.235-.026-.344-.071l-.132-.121-.376-.213c-.13-.101-.19-.277-.304-.396l-.568-.436-.629-.64c-.152-.11-.424-.094-.588-.192-.307-.184-.478-.533-.75-.751-.197-.155-.47-.23-.67-.385l-.426-.406-.325-.192c-.139-.117-.219-.291-.375-.396-.112-.076-.216-.166-.325-.233-.169-.105-.365-.147-.517-.264-.172-.133-.279-.352-.456-.487l-.548-.294c-.09-.075-.043-.29-.132-.365l-.314-.112c-.11-.045-.139-.143-.224-.203-.092-.064-.234-.066-.304-.152l-.01-.01c-.078-.12-.028-.305-.142-.385-.13-.093-.36-.057-.497-.163l-.386-.304q-.07-.112-.142-.223l-.689-.345c-.107-.08-.225-.361-.437-.284-.25.18.037.724.163.8l.213.093c.077.049.13.125.223.162.114.045.276.032.365.1l.162.326c.075.109.222.14.325.223.131.104.172.3.314.396.148.098.685 0 .731.07.074.115-.145.285-.193.335.007.36.675.397.842.65l.041.202a.67.67 0 0 0 .253.315l.304.03.224.193c.116.07.264.08.365.162l.203.376.263.172.345.345.447.314.344.173q.082.116.163.233l.456.193c.093.062.106.21.193.274.092.067.264.042.324.142l.061.274c.046.066.152.079.223.12.153.09.413.31.437.519l-.01.02h-.01c-.438-.042-.534-.363-.802-.558l-.243-.122-.173-.233-.466-.294c-.18-.131-.34-.32-.518-.447l-.324-.182-.305-.294q-.162-.113-.324-.223l-.254-.295-.639-.344-.355-.345c-.113-.084-.229-.135-.324-.234l-.285-.324-.355-.173c-.118-.083-.179-.21-.284-.304l-.344-.213c-.287-.215-.477-.568-.76-.781l-.346-.142-1.075-.953c-.137-.1-.308-.142-.436-.244-.144-.113-.2-.31-.335-.426l-.406-.213-.487-.314-.294-.295-.79-.67q-.143-.15-.285-.303l-.345-.152c-.114-.067-.193-.17-.294-.244-.129-.095-.273-.15-.396-.243l-.385-.376c-.213-.168-.442-.311-.649-.476l-.538-.548c-.365-.268-.817-.411-1.187-.68-.206-.15-.382-.337-.578-.497-.112-.091-.176-.273-.335-.314-.19-.05-.574.037-.628.172-.044.11-.022.238-.082.325-.089.13-.274.196-.375.324-.189.24-.397.47-.578.72q-.09.178-.183.356l-.649.669c-.275.219-.519.484-.79.7q-.179.151-.356.304l-.223.325c-.1.109-.309.123-.386.253l-.09.224c-.215.348-.676.768-.995 1.024-.107.086-.264.379-.487.294-.413-.198.323-.674.416-.781.345-.397.605-.882.933-1.298l.761-.822c.062-.11.052-.286.111-.385l.355-.112c.105-.076.11-.276.183-.385.121-.18.308-.327.436-.497.144-.192.241-.37.376-.578.114-.177.463-.365.233-.71-.458-.121-.558.628-.933.486l-.03-.02c.006-.206.143-.3.222-.436.11-.187.163-.392.244-.61.055-.146.124-.387-.02-.486-.148-.1-.438.004-.518.102-.175.214-.34.449-.558.619l-.253.203a8 8 0 0 1-.599.659c-.096.097-.129.22-.213.335-.11.149-.296.23-.395.395l-.142.386-.376.314-.162.355-.294.254c-.243.294-.492.593-.76.862l-.559.548c-.117.156-.175.35-.284.507-.302.434-.726.795-1.105 1.156-.103.098-.095.338-.213.416l-.416.112c-.105.043-.159.14-.244.202q-.135.072-.274.142l-.1.254-.194.264c-.332.439-.71.815-1.207 1.095-.209.118-.473.466-.842.244-.185-.112-.138-.35-.253-.528-.302-.09-.692.055-1.004-.01-.263-.054-.21-.226-.355-.325-.234-.16-.552.164-.639.244-.235-.008-.322-.283-.467-.396-.158-.122-.368-.215-.487-.375l-.264-.456-.09-.345-.214-.254-.08-.335c-.123-.203-.449-.258-.549-.466-.1-.406.663-.872.517-1.258-.19-.51-.856-1.11-1.278-1.41-.193-.137-.316-.122-.385-.396-.016-.063-.05-.162-.02-.243.037-.102.142-.151.223-.213q.112-.101.223-.203l.964-.01h.618c.162.057.221.264.386.314.27.083.51-.11.608-.243.083-.11.075-.251.132-.396l.203-.314c.063-.106.06-.227.112-.355.035-.087.127-.12.172-.193l.081-.243.203-.304c.06-.101.027-.27.081-.386l.477-.63.112-.293.162-.142c.147-.235.238-.48.395-.7.131-.183.307-.336.426-.537.154-.26.215-.545.376-.792.202-.311.541-.51.761-.801.08-.107.08-.27.162-.385l.122-.092.162-.405.203-.305.02-.324.223-.183c.083-.131.038-.365.112-.487.08-.13.168-.296.263-.426l.142-.142.082-.233c.065-.15.173-.278.253-.406l.061-.233.203-.304c.042-.103.05-.188.101-.274.093-.158.185-.334.295-.487l.162-.112c.071-.122.041-.35.091-.466q.097-.152.193-.305l.122-.284.172-.182.041-.345c.056-.19.204-.297.273-.467l.041-.284.172-.142c.078-.115.065-.311.132-.426.051-.087.195-.171.223-.253l.011-.254c.04-.137.178-.192.223-.314l.091-.355.243-.355.021-.447c.036-.09.154-.081.203-.152l.05-.304c.06-.15.215-.241.274-.375l.031-.295c.04-.098.171-.111.223-.192l.071-.376c.06-.098.21-.132.253-.243.062-.16.05-.721-.05-.791-.156-.11-.436-.105-.487-.315-.054-.222.173-.3.223-.446l.101-.73.224-.447c.073-.345-.12-.937.081-1.207.083-.112.224-.093.365-.152"/></g></svg>